<svg xmlns="http://www.w3.org/2000/svg" xmlns:xlink="http://www.w3.org/1999/xlink" width="1000" height="582.75"><rect width="1000" height="582.75" rx="0" ry="0" class="a"/><svg height="542.75" viewBox="0 0 100 54.275" width="1000" xmlns="http://www.w3.org/2000/svg" xmlns:xlink="http://www.w3.org/1999/xlink" y="20"><style>@keyframes k{0%{transform:translateX(0)}1.2%{transform:translateX(-100px)}1.3%{transform:translateX(-200px)}1.5%{transform:translateX(-400px)}1.6%{transform:translateX(-500px)}9.8%{transform:translateX(-600px)}10.6%{transform:translateX(-700px)}10.8%{transform:translateX(-800px)}11%{transform:translateX(-900px)}11.7%{transform:translateX(-1000px)}11.8%{transform:translateX(-1100px)}12%{transform:translateX(-1300px)}15.8%{transform:translateX(-1500px)}16.4%{transform:translateX(-1600px)}16.5%{transform:translateX(-1700px)}17.3%{transform:translateX(-1800px)}17.6%{transform:translateX(-1900px)}21.4%{transform:translateX(-2000px)}25.1%{transform:translateX(-2100px)}28.9%{transform:translateX(-2200px)}32.7%{transform:translateX(-2300px)}36.5%{transform:translateX(-2400px)}40.2%{transform:translateX(-2500px)}43.9%{transform:translateX(-2600px)}47.7%{transform:translateX(-2700px)}51.3%{transform:translateX(-2800px)}51.5%{transform:translateX(-3000px)}55.1%{transform:translateX(-3100px)}55.8%{transform:translateX(-3200px)}56%{transform:translateX(-3300px)}56.2%{transform:translateX(-3400px)}56.9%{transform:translateX(-3500px)}57%{transform:translateX(-3600px)}57.2%{transform:translateX(-3800px)}61.1%{transform:translateX(-3900px)}61.7%{transform:translateX(-4000px)}61.9%{transform:translateX(-4100px)}62%{transform:translateX(-4200px)}62.7%{transform:translateX(-4300px)}62.8%{transform:translateX(-4400px)}63%{transform:translateX(-4500px)}63.1%{transform:translateX(-4600px)}66.9%{transform:translateX(-4700px)}67.5%{transform:translateX(-4800px)}67.6%{transform:translateX(-4900px)}67.8%{transform:translateX(-5000px)}68.4%{transform:translateX(-5100px)}68.5%{transform:translateX(-5200px)}69.2%{transform:translateX(-5300px)}69.5%{transform:translateX(-5400px)}73.4%{transform:translateX(-5500px)}77.3%{transform:translateX(-5600px)}81.1%{transform:translateX(-5700px)}85%{transform:translateX(-5800px)}88.7%{transform:translateX(-5900px)}92.4%{transform:translateX(-6000px)}96.1%{transform:translateX(-6100px)}99.7%{transform:translateX(-6200px)}to{transform:translateX(-6400px)}}.a{fill:#282d35}.c,.d,.e{fill:#b9c0cb}.c{white-space:pre}.d,.e{font-weight:700}.d{white-space:pre}.e{text-decoration:underline}.e,.f,.g,.h{white-space:pre}.f{font-weight:700;text-decoration:underline;fill:#a8cc8c}.g,.h{fill:#e88388}.h{fill:#a8cc8c}</style><g font-family="Monaco,Consolas,Menlo,'Bitstream Vera Sans Mono','Powerline Symbols',monospace" font-size="1.67"><defs><symbol id="9"><text x="2.004" y="1.67" class="e">Checking</text><text x="11.022" y="1.67" class="f">add-video-nginx:d1452cf805fd</text><text x="40.08" y="1.67" class="c">(0.0.0.0:80-&gt;80/tcp,</text><text x="61.122" y="1.67" class="c">0.0.0.0:443-&gt;443/tcp)</text></symbol><symbol id="1"><text x="2.004" y="1.67" class="c">âš˜</text><text x="5.01" y="1.67" class="d">Stop</text><text x="10.02" y="1.67" class="d">docker</text><text x="17.034" y="1.67" class="d">container</text><text x="27.054" y="1.67" class="d">by</text><text x="30.06" y="1.67" class="d">ports</text></symbol><symbol id="3"><text x="2.004" y="1.67" class="e">Checking</text><text x="11.022" y="1.67" class="f">add-video-mariadb:19a550ad6606</text><text x="42.084" y="1.67" class="c">(0.0.0.0:3306-&gt;3306/tcp)</text></symbol><symbol id="4"><text x="2.004" y="1.67" class="c">[â ‹]</text><text x="6.012" y="1.67" class="c">Checking</text><text x="15.03" y="1.67" class="c">port</text><text x="20.04" y="1.67" class="c">443</text></symbol><symbol id="5"><text x="2.004" y="1.67" class="c">[</text><text x="3.006" y="1.67" class="g">ğ˜…</text><text x="5.01" y="1.67" class="c">]</text><text x="7.014" y="1.67" class="c">443</text><text x="11.022" y="1.67" class="c">does</text><text x="16.032" y="1.67" class="c">not</text><text x="20.04" y="1.67" class="c">match</text><text x="26.052" y="1.67" class="c">this</text><text x="31.062" y="1.67" class="c">container</text></symbol><symbol id="6"><text x="2.004" y="1.67" class="c">[â ‹]</text><text x="6.012" y="1.67" class="c">Checking</text><text x="15.03" y="1.67" class="c">port</text><text x="20.04" y="1.67" class="c">80</text></symbol><symbol id="7"><text x="2.004" y="1.67" class="c">[</text><text x="3.006" y="1.67" class="g">ğ˜…</text><text x="5.01" y="1.67" class="c">]</text><text x="7.014" y="1.67" class="c">80</text><text x="10.02" y="1.67" class="c">does</text><text x="15.03" y="1.67" class="c">not</text><text x="19.038" y="1.67" class="c">match</text><text x="25.05" y="1.67" class="c">this</text><text x="30.06" y="1.67" class="c">container</text></symbol><symbol id="8"><text x="2.004" y="1.67" class="c">Skipped</text></symbol><symbol id="2"><text x="2.004" y="1.67" class="c">â””â”€â”€â”€â”€â”€â”€â”€â”€â”€â”€â”€â”€â”€â”€â”€â”€â”€â”€â”€â”€â”€â”€â”€â”€â”€â”€â”€â”€â”€â”€â”€â”€â”€â”€â”€â”€â”€â”€â”€â”€â”€â”€â”€â”€â”€â”€â”€â”€â”€â”€â”€â”€â”€â”€â”€â”€â”€â”€â”€â”€â”€â”€â”€â”€â”€â”€â”€â”€â”€â”€â—‹</text></symbol><symbol id="10"><text x="2.004" y="1.67" class="c">[</text><text x="3.006" y="1.67" class="h">âœ“</text><text x="4.008" y="1.67" class="c">]</text><text x="6.012" y="1.67" class="c">Successfully</text><text x="19.038" y="1.67" class="c">stopped</text><text x="27.054" y="1.67" class="c">container</text><text x="37.074" y="1.67" class="c">(1s)</text></symbol><symbol id="11"><text x="2.004" y="1.67" class="e">Checking</text><text x="11.022" y="1.67" class="f">add-video-memcached:cca3ce7369bc</text><text x="44.088" y="1.67" class="c">(0.0.0.0:11211-&gt;11211/tcp)</text></symbol><symbol id="12"><text x="2.004" y="1.67" class="e">Checking</text><text x="11.022" y="1.67" class="f">add-video-php:a338e6ac61d6</text><text x="38.076" y="1.67" class="c">(9000/tcp)</text></symbol><symbol id="13"><text x="2.004" y="1.67" class="e">Checking</text><text x="11.022" y="1.67" class="f">add-video-mailer:a1a0c94c8084</text><text x="41.082" y="1.67" class="c">(25/tcp,</text><text x="50.1" y="1.67" class="c">0.0.0.0:1080-&gt;80/tcp)</text></symbol><symbol id="14"><text x="2.004" y="1.67" class="c">[</text><text x="3.006" y="1.67" class="h">âœ“</text><text x="4.008" y="1.67" class="c">]</text><text x="6.012" y="1.67" class="c">Successfully</text><text x="19.038" y="1.67" class="c">stopped</text><text x="27.054" y="1.67" class="c">container</text><text x="37.074" y="1.67" class="c">(3s)</text></symbol><symbol id="a"><path fill="transparent" d="M0 0h100v26H0z"/></symbol><symbol id="b"><path fill="#6f7683" d="M0 0h1.102v2.171H0z"/></symbol></defs><path class="a" d="M0 0h100v54.275H0z"/><g style="animation-duration:2.91629s;animation-iteration-count:infinite;animation-name:k;animation-timing-function:steps(1,end)"><svg width="6500"><svg><use xlink:href="#a"/><use xlink:href="#b" x="-.004"/></svg><svg x="100"><use xlink:href="#a"/><use xlink:href="#b" x="-.004"/></svg><svg x="200"><use xlink:href="#a"/><use xlink:href="#b" x="1.996"/></svg><svg x="300"><use xlink:href="#a"/><use xlink:href="#b" x="-.004" y="2.146"/></svg><svg x="400"><use xlink:href="#a"/><use xlink:href="#b" x="-.004" y="4.317"/><use xlink:href="#1" y="2.171"/></svg><svg x="500"><use xlink:href="#a"/><use xlink:href="#b" x="-.004" y="8.659"/><use xlink:href="#1" y="2.171"/><use xlink:href="#2" y="4.342"/></svg><svg x="600"><use xlink:href="#a"/><use xlink:href="#b" x="-.004" y="13.001"/><use xlink:href="#1" y="2.171"/><use xlink:href="#2" y="4.342"/><use xlink:href="#3" y="8.684"/></svg><svg x="700"><use xlink:href="#a"/><use xlink:href="#b" x="22.996" y="13.001"/><use xlink:href="#1" y="2.171"/><use xlink:href="#2" y="4.342"/><use xlink:href="#3" y="8.684"/><use xlink:href="#4" y="13.026"/></svg><svg x="800"><use xlink:href="#a"/><use xlink:href="#b" x="-.004" y="13.001"/><use xlink:href="#1" y="2.171"/><use xlink:href="#2" y="4.342"/><use xlink:href="#3" y="8.684"/></svg><svg x="900"><use xlink:href="#a"/><use xlink:href="#b" x="-.004" y="15.172"/><use xlink:href="#1" y="2.171"/><use xlink:href="#2" y="4.342"/><use xlink:href="#3" y="8.684"/><use xlink:href="#5" y="13.026"/></svg><svg x="1000"><use xlink:href="#a"/><use xlink:href="#b" x="21.996" y="15.172"/><use xlink:href="#1" y="2.171"/><use xlink:href="#2" y="4.342"/><use xlink:href="#3" y="8.684"/><use xlink:href="#5" y="13.026"/><use xlink:href="#6" y="15.197"/></svg><svg x="1100"><use xlink:href="#a"/><use xlink:href="#b" x="-.004" y="15.172"/><use xlink:href="#1" y="2.171"/><use xlink:href="#2" y="4.342"/><use xlink:href="#3" y="8.684"/><use xlink:href="#5" y="13.026"/></svg><svg x="1200"><use xlink:href="#a"/><use xlink:href="#b" x="-.004" y="17.343"/><use xlink:href="#1" y="2.171"/><use xlink:href="#2" y="4.342"/><use xlink:href="#3" y="8.684"/><use xlink:href="#5" y="13.026"/><use xlink:href="#7" y="15.197"/></svg><svg x="1300"><use xlink:href="#a"/><use xlink:href="#b" x="-.004" y="23.856"/><use xlink:href="#1" y="2.171"/><use xlink:href="#2" y="4.342"/><use xlink:href="#3" y="8.684"/><use xlink:href="#5" y="13.026"/><use xlink:href="#7" y="15.197"/><use xlink:href="#8" y="19.539"/></svg><svg x="1400"><use xlink:href="#a"/><use xlink:href="#b" x="-.004" y="26.027"/><use xlink:href="#1" y="2.171"/><use xlink:href="#2" y="4.342"/><use xlink:href="#3" y="8.684"/><use xlink:href="#5" y="13.026"/><use xlink:href="#7" y="15.197"/><use xlink:href="#8" y="19.539"/><use xlink:href="#9" y="23.881"/></svg><svg x="1500"><use xlink:href="#a"/><use xlink:href="#b" x="-.004" y="28.198"/><use xlink:href="#1" y="2.171"/><use xlink:href="#2" y="4.342"/><use xlink:href="#3" y="8.684"/><use xlink:href="#5" y="13.026"/><use xlink:href="#7" y="15.197"/><use xlink:href="#8" y="19.539"/><use xlink:href="#9" y="23.881"/></svg><svg x="1600"><use xlink:href="#a"/><use xlink:href="#b" x="22.996" y="28.198"/><use xlink:href="#1" y="2.171"/><use xlink:href="#2" y="4.342"/><use xlink:href="#3" y="8.684"/><use xlink:href="#5" y="13.026"/><use xlink:href="#7" y="15.197"/><use xlink:href="#8" y="19.539"/><use xlink:href="#9" y="23.881"/><use xlink:href="#4" y="28.223"/></svg><svg x="1700"><use xlink:href="#a"/><use xlink:href="#b" x="-.004" y="28.198"/><use xlink:href="#1" y="2.171"/><use xlink:href="#2" y="4.342"/><use xlink:href="#3" y="8.684"/><use xlink:href="#5" y="13.026"/><use xlink:href="#7" y="15.197"/><use xlink:href="#8" y="19.539"/><use xlink:href="#9" y="23.881"/></svg><svg x="1800"><use xlink:href="#a"/><use xlink:href="#b" x="40.996" y="28.198"/><use xlink:href="#1" y="2.171"/><use xlink:href="#2" y="4.342"/><use xlink:href="#3" y="8.684"/><use xlink:href="#5" y="13.026"/><use xlink:href="#7" y="15.197"/><use xlink:href="#8" y="19.539"/><use xlink:href="#9" y="23.881"/><text x="2.004" y="29.893" class="c">[â ‹]</text><text x="6.012" y="29.893" class="c">Stopping</text><text x="15.03" y="29.893" class="c">container</text><text x="25.05" y="29.893" class="c">with</text><text x="30.06" y="29.893" class="c">port</text><text x="35.07" y="29.893" class="c">443...</text></svg><svg x="1900"><use xlink:href="#a"/><use xlink:href="#b" x="45.996" y="28.198"/><use xlink:href="#1" y="2.171"/><use xlink:href="#2" y="4.342"/><use xlink:href="#3" y="8.684"/><use xlink:href="#5" y="13.026"/><use xlink:href="#7" y="15.197"/><use xlink:href="#8" y="19.539"/><use xlink:href="#9" y="23.881"/><text x="2.004" y="29.893" class="c">[â ™]</text><text x="6.012" y="29.893" class="c">Stopping</text><text x="15.03" y="29.893" class="c">container</text><text x="25.05" y="29.893" class="c">with</text><text x="30.06" y="29.893" class="c">port</text><text x="35.07" y="29.893" class="c">443...</text><text x="42.084" y="29.893" class="c">(0s)</text></svg><svg x="2000"><use xlink:href="#a"/><use xlink:href="#b" x="45.996" y="28.198"/><use xlink:href="#1" y="2.171"/><use xlink:href="#2" y="4.342"/><use xlink:href="#3" y="8.684"/><use xlink:href="#5" y="13.026"/><use xlink:href="#7" y="15.197"/><use xlink:href="#8" y="19.539"/><use xlink:href="#9" y="23.881"/><text x="2.004" y="29.893" class="c">[â ¹]</text><text x="6.012" y="29.893" class="c">Stopping</text><text x="15.03" y="29.893" class="c">container</text><text x="25.05" y="29.893" class="c">with</text><text x="30.06" y="29.893" class="c">port</text><text x="35.07" y="29.893" class="c">443...</text><text x="42.084" y="29.893" class="c">(0s)</text></svg><svg x="2100"><use xlink:href="#a"/><use xlink:href="#b" x="45.996" y="28.198"/><use xlink:href="#1" y="2.171"/><use xlink:href="#2" y="4.342"/><use xlink:href="#3" y="8.684"/><use xlink:href="#5" y="13.026"/><use xlink:href="#7" y="15.197"/><use xlink:href="#8" y="19.539"/><use xlink:href="#9" y="23.881"/><text x="2.004" y="29.893" class="c">[â ¸]</text><text x="6.012" y="29.893" class="c">Stopping</text><text x="15.03" y="29.893" class="c">container</text><text x="25.05" y="29.893" class="c">with</text><text x="30.06" y="29.893" class="c">port</text><text x="35.07" y="29.893" class="c">443...</text><text x="42.084" y="29.893" class="c">(0s)</text></svg><svg x="2200"><use xlink:href="#a"/><use xlink:href="#b" x="45.996" y="28.198"/><use xlink:href="#1" y="2.171"/><use xlink:href="#2" y="4.342"/><use xlink:href="#3" y="8.684"/><use xlink:href="#5" y="13.026"/><use xlink:href="#7" y="15.197"/><use xlink:href="#8" y="19.539"/><use xlink:href="#9" y="23.881"/><text x="2.004" y="29.893" class="c">[â ¼]</text><text x="6.012" y="29.893" class="c">Stopping</text><text x="15.03" y="29.893" class="c">container</text><text x="25.05" y="29.893" class="c">with</text><text x="30.06" y="29.893" class="c">port</text><text x="35.07" y="29.893" class="c">443...</text><text x="42.084" y="29.893" class="c">(1s)</text></svg><svg x="2300"><use xlink:href="#a"/><use xlink:href="#b" x="45.996" y="28.198"/><use xlink:href="#1" y="2.171"/><use xlink:href="#2" y="4.342"/><use xlink:href="#3" y="8.684"/><use xlink:href="#5" y="13.026"/><use xlink:href="#7" y="15.197"/><use xlink:href="#8" y="19.539"/><use xlink:href="#9" y="23.881"/><text x="2.004" y="29.893" class="c">[â ´]</text><text x="6.012" y="29.893" class="c">Stopping</text><text x="15.03" y="29.893" class="c">container</text><text x="25.05" y="29.893" class="c">with</text><text x="30.06" y="29.893" class="c">port</text><text x="35.07" y="29.893" class="c">443...</text><text x="42.084" y="29.893" class="c">(1s)</text></svg><svg x="2400"><use xlink:href="#a"/><use xlink:href="#b" x="45.996" y="28.198"/><use xlink:href="#1" y="2.171"/><use xlink:href="#2" y="4.342"/><use xlink:href="#3" y="8.684"/><use xlink:href="#5" y="13.026"/><use xlink:href="#7" y="15.197"/><use xlink:href="#8" y="19.539"/><use xlink:href="#9" y="23.881"/><text x="2.004" y="29.893" class="c">[â ¦]</text><text x="6.012" y="29.893" class="c">Stopping</text><text x="15.03" y="29.893" class="c">container</text><text x="25.05" y="29.893" class="c">with</text><text x="30.06" y="29.893" class="c">port</text><text x="35.07" y="29.893" class="c">443...</text><text x="42.084" y="29.893" class="c">(1s)</text></svg><svg x="2500"><use xlink:href="#a"/><use xlink:href="#b" x="45.996" y="28.198"/><use xlink:href="#1" y="2.171"/><use xlink:href="#2" y="4.342"/><use xlink:href="#3" y="8.684"/><use xlink:href="#5" y="13.026"/><use xlink:href="#7" y="15.197"/><use xlink:href="#8" y="19.539"/><use xlink:href="#9" y="23.881"/><text x="2.004" y="29.893" class="c">[â §]</text><text x="6.012" y="29.893" class="c">Stopping</text><text x="15.03" y="29.893" class="c">container</text><text x="25.05" y="29.893" class="c">with</text><text x="30.06" y="29.893" class="c">port</text><text x="35.07" y="29.893" class="c">443...</text><text x="42.084" y="29.893" class="c">(1s)</text></svg><svg x="2600"><use xlink:href="#a"/><use xlink:href="#b" x="45.996" y="28.198"/><use xlink:href="#1" y="2.171"/><use xlink:href="#2" y="4.342"/><use xlink:href="#3" y="8.684"/><use xlink:href="#5" y="13.026"/><use xlink:href="#7" y="15.197"/><use xlink:href="#8" y="19.539"/><use xlink:href="#9" y="23.881"/><text x="2.004" y="29.893" class="c">[â ‡]</text><text x="6.012" y="29.893" class="c">Stopping</text><text x="15.03" y="29.893" class="c">container</text><text x="25.05" y="29.893" class="c">with</text><text x="30.06" y="29.893" class="c">port</text><text x="35.07" y="29.893" class="c">443...</text><text x="42.084" y="29.893" class="c">(1s)</text></svg><svg x="2700"><use xlink:href="#a"/><use xlink:href="#b" x="45.996" y="28.198"/><use xlink:href="#1" y="2.171"/><use xlink:href="#2" y="4.342"/><use xlink:href="#3" y="8.684"/><use xlink:href="#5" y="13.026"/><use xlink:href="#7" y="15.197"/><use xlink:href="#8" y="19.539"/><use xlink:href="#9" y="23.881"/><text x="2.004" y="29.893" class="c">[â ‹]</text><text x="6.012" y="29.893" class="c">Stopping</text><text x="15.03" y="29.893" class="c">container</text><text x="25.05" y="29.893" class="c">with</text><text x="30.06" y="29.893" class="c">port</text><text x="35.07" y="29.893" class="c">443...</text><text x="42.084" y="29.893" class="c">(1s)</text></svg><svg x="2800"><use xlink:href="#a"/><use xlink:href="#b" x="-.004" y="28.198"/><use xlink:href="#1" y="2.171"/><use xlink:href="#2" y="4.342"/><use xlink:href="#3" y="8.684"/><use xlink:href="#5" y="13.026"/><use xlink:href="#7" y="15.197"/><use xlink:href="#8" y="19.539"/><use xlink:href="#9" y="23.881"/></svg><svg x="2900"><use xlink:href="#a"/><use xlink:href="#b" x="-.004" y="30.369"/><use xlink:href="#1" y="2.171"/><use xlink:href="#2" y="4.342"/><use xlink:href="#3" y="8.684"/><use xlink:href="#5" y="13.026"/><use xlink:href="#7" y="15.197"/><use xlink:href="#8" y="19.539"/><use xlink:href="#9" y="23.881"/><use xlink:href="#10" y="28.223"/></svg><svg x="3000"><use xlink:href="#a"/><use xlink:href="#b" x="-.004" y="32.54"/><use xlink:href="#1" y="2.171"/><use xlink:href="#2" y="4.342"/><use xlink:href="#3" y="8.684"/><use xlink:href="#5" y="13.026"/><use xlink:href="#7" y="15.197"/><use xlink:href="#8" y="19.539"/><use xlink:href="#9" y="23.881"/><use xlink:href="#10" y="28.223"/></svg><svg x="3100"><use xlink:href="#a"/><use xlink:href="#b" x="-.004" y="36.882"/><use xlink:href="#1" y="2.171"/><use xlink:href="#2" y="4.342"/><use xlink:href="#3" y="8.684"/><use xlink:href="#5" y="13.026"/><use xlink:href="#7" y="15.197"/><use xlink:href="#8" y="19.539"/><use xlink:href="#9" y="23.881"/><use xlink:href="#10" y="28.223"/><use xlink:href="#11" y="32.565"/></svg><svg x="3200"><use xlink:href="#a"/><use xlink:href="#b" x="22.996" y="36.882"/><use xlink:href="#1" y="2.171"/><use xlink:href="#2" y="4.342"/><use xlink:href="#3" y="8.684"/><use xlink:href="#5" y="13.026"/><use xlink:href="#7" y="15.197"/><use xlink:href="#8" y="19.539"/><use xlink:href="#9" y="23.881"/><use xlink:href="#10" y="28.223"/><use xlink:href="#11" y="32.565"/><use xlink:href="#4" y="36.907"/></svg><svg x="3300"><use xlink:href="#a"/><use xlink:href="#b" x="-.004" y="36.882"/><use xlink:href="#1" y="2.171"/><use xlink:href="#2" y="4.342"/><use xlink:href="#3" y="8.684"/><use xlink:href="#5" y="13.026"/><use xlink:href="#7" y="15.197"/><use xlink:href="#8" y="19.539"/><use xlink:href="#9" y="23.881"/><use xlink:href="#10" y="28.223"/><use xlink:href="#11" y="32.565"/></svg><svg x="3400"><use xlink:href="#a"/><use xlink:href="#b" x="-.004" y="39.053"/><use xlink:href="#1" y="2.171"/><use xlink:href="#2" y="4.342"/><use xlink:href="#3" y="8.684"/><use xlink:href="#5" y="13.026"/><use xlink:href="#7" y="15.197"/><use xlink:href="#8" y="19.539"/><use xlink:href="#9" y="23.881"/><use xlink:href="#10" y="28.223"/><use xlink:href="#11" y="32.565"/><use xlink:href="#5" y="36.907"/></svg><svg x="3500"><use xlink:href="#a"/><use xlink:href="#b" x="21.996" y="39.053"/><use xlink:href="#1" y="2.171"/><use xlink:href="#2" y="4.342"/><use xlink:href="#3" y="8.684"/><use xlink:href="#5" y="13.026"/><use xlink:href="#7" y="15.197"/><use xlink:href="#8" y="19.539"/><use xlink:href="#9" y="23.881"/><use xlink:href="#10" y="28.223"/><use xlink:href="#11" y="32.565"/><use xlink:href="#5" y="36.907"/><use xlink:href="#6" y="39.078"/></svg><svg x="3600"><use xlink:href="#a"/><use xlink:href="#b" x="-.004" y="39.053"/><use xlink:href="#1" y="2.171"/><use xlink:href="#2" y="4.342"/><use xlink:href="#3" y="8.684"/><use xlink:href="#5" y="13.026"/><use xlink:href="#7" y="15.197"/><use xlink:href="#8" y="19.539"/><use xlink:href="#9" y="23.881"/><use xlink:href="#10" y="28.223"/><use xlink:href="#11" y="32.565"/><use xlink:href="#5" y="36.907"/></svg><svg x="3700"><use xlink:href="#a"/><use xlink:href="#b" x="-.004" y="41.224"/><use xlink:href="#1" y="2.171"/><use xlink:href="#2" y="4.342"/><use xlink:href="#3" y="8.684"/><use xlink:href="#5" y="13.026"/><use xlink:href="#7" y="15.197"/><use xlink:href="#8" y="19.539"/><use xlink:href="#9" y="23.881"/><use xlink:href="#10" y="28.223"/><use xlink:href="#11" y="32.565"/><use xlink:href="#5" y="36.907"/><use xlink:href="#7" y="39.078"/></svg><svg x="3800"><use xlink:href="#a"/><use xlink:href="#b" x="-.004" y="47.737"/><use xlink:href="#1" y="2.171"/><use xlink:href="#2" y="4.342"/><use xlink:href="#3" y="8.684"/><use xlink:href="#5" y="13.026"/><use xlink:href="#7" y="15.197"/><use xlink:href="#8" y="19.539"/><use xlink:href="#9" y="23.881"/><use xlink:href="#10" y="28.223"/><use xlink:href="#11" y="32.565"/><use xlink:href="#5" y="36.907"/><use xlink:href="#7" y="39.078"/><use xlink:href="#8" y="43.42"/></svg><svg x="3900"><use xlink:href="#a"/><use xlink:href="#b" x="-.004" y="52.079"/><use xlink:href="#1" y="2.171"/><use xlink:href="#2" y="4.342"/><use xlink:href="#3" y="8.684"/><use xlink:href="#5" y="13.026"/><use xlink:href="#7" y="15.197"/><use xlink:href="#8" y="19.539"/><use xlink:href="#9" y="23.881"/><use xlink:href="#10" y="28.223"/><use xlink:href="#11" y="32.565"/><use xlink:href="#5" y="36.907"/><use xlink:href="#7" y="39.078"/><use xlink:href="#8" y="43.42"/><use xlink:href="#12" y="47.762"/></svg><svg x="4000"><use xlink:href="#a"/><use xlink:href="#b" x="22.996" y="52.079"/><use xlink:href="#1" y="2.171"/><use xlink:href="#2" y="4.342"/><use xlink:href="#3" y="8.684"/><use xlink:href="#5" y="13.026"/><use xlink:href="#7" y="15.197"/><use xlink:href="#8" y="19.539"/><use xlink:href="#9" y="23.881"/><use xlink:href="#10" y="28.223"/><use xlink:href="#11" y="32.565"/><use xlink:href="#5" y="36.907"/><use xlink:href="#7" y="39.078"/><use xlink:href="#8" y="43.42"/><use xlink:href="#12" y="47.762"/><use xlink:href="#4" y="52.104"/></svg><svg x="4100"><use xlink:href="#a"/><use xlink:href="#b" x="-.004" y="52.079"/><use xlink:href="#1" y="2.171"/><use xlink:href="#2" y="4.342"/><use xlink:href="#3" y="8.684"/><use xlink:href="#5" y="13.026"/><use xlink:href="#7" y="15.197"/><use xlink:href="#8" y="19.539"/><use xlink:href="#9" y="23.881"/><use xlink:href="#10" y="28.223"/><use xlink:href="#11" y="32.565"/><use xlink:href="#5" y="36.907"/><use xlink:href="#7" y="39.078"/><use xlink:href="#8" y="43.42"/><use xlink:href="#12" y="47.762"/></svg><svg x="4200"><use xlink:href="#a"/><use xlink:href="#b" x="-.004" y="54.25"/><use xlink:href="#1" y="2.171"/><use xlink:href="#2" y="4.342"/><use xlink:href="#3" y="8.684"/><use xlink:href="#5" y="13.026"/><use xlink:href="#7" y="15.197"/><use xlink:href="#8" y="19.539"/><use xlink:href="#9" y="23.881"/><use xlink:href="#10" y="28.223"/><use xlink:href="#11" y="32.565"/><use xlink:href="#5" y="36.907"/><use xlink:href="#7" y="39.078"/><use xlink:href="#8" y="43.42"/><use xlink:href="#12" y="47.762"/><use xlink:href="#5" y="52.104"/></svg><svg x="4300"><use xlink:href="#a"/><use xlink:href="#b" x="21.996" y="54.25"/><use xlink:href="#1" y="2.171"/><use xlink:href="#2" y="4.342"/><use xlink:href="#3" y="8.684"/><use xlink:href="#5" y="13.026"/><use xlink:href="#7" y="15.197"/><use xlink:href="#8" y="19.539"/><use xlink:href="#9" y="23.881"/><use xlink:href="#10" y="28.223"/><use xlink:href="#11" y="32.565"/><use xlink:href="#5" y="36.907"/><use xlink:href="#7" y="39.078"/><use xlink:href="#8" y="43.42"/><use xlink:href="#12" y="47.762"/><use xlink:href="#5" y="52.104"/><use xlink:href="#6" y="54.275"/></svg><svg x="4400"><use xlink:href="#a"/><use xlink:href="#b" x="-.004" y="54.25"/><use xlink:href="#1" y="2.171"/><use xlink:href="#2" y="4.342"/><use xlink:href="#3" y="8.684"/><use xlink:href="#5" y="13.026"/><use xlink:href="#7" y="15.197"/><use xlink:href="#8" y="19.539"/><use xlink:href="#9" y="23.881"/><use xlink:href="#10" y="28.223"/><use xlink:href="#11" y="32.565"/><use xlink:href="#5" y="36.907"/><use xlink:href="#7" y="39.078"/><use xlink:href="#8" y="43.42"/><use xlink:href="#12" y="47.762"/><use xlink:href="#5" y="52.104"/></svg><svg x="4500"><use xlink:href="#a"/><use xlink:href="#b" x="-.004" y="54.25"/><use xlink:href="#1"/><use xlink:href="#2" y="2.171"/><use xlink:href="#3" y="6.513"/><use xlink:href="#5" y="10.855"/><use xlink:href="#7" y="13.026"/><use xlink:href="#8" y="17.368"/><use xlink:href="#9" y="21.71"/><use xlink:href="#10" y="26.052"/><use xlink:href="#11" y="30.394"/><use xlink:href="#5" y="34.736"/><use xlink:href="#7" y="36.907"/><use xlink:href="#8" y="41.249"/><use xlink:href="#12" y="45.591"/><use xlink:href="#5" y="49.933"/><use xlink:href="#7" y="52.104"/></svg><svg x="4600"><use xlink:href="#a"/><use xlink:href="#b" x="-.004" y="54.25"/><use xlink:href="#3"/><use xlink:href="#5" y="4.342"/><use xlink:href="#7" y="6.513"/><use xlink:href="#8" y="10.855"/><use xlink:href="#9" y="15.197"/><use xlink:href="#10" y="19.539"/><use xlink:href="#11" y="23.881"/><use xlink:href="#5" y="28.223"/><use xlink:href="#7" y="30.394"/><use xlink:href="#8" y="34.736"/><use xlink:href="#12" y="39.078"/><use xlink:href="#5" y="43.42"/><use xlink:href="#7" y="45.591"/><use xlink:href="#8" y="49.933"/></svg><svg x="4700"><use xlink:href="#a"/><use xlink:href="#b" x="-.004" y="54.25"/><use xlink:href="#5"/><use xlink:href="#7" y="2.171"/><use xlink:href="#8" y="6.513"/><use xlink:href="#9" y="10.855"/><use xlink:href="#10" y="15.197"/><use xlink:href="#11" y="19.539"/><use xlink:href="#5" y="23.881"/><use xlink:href="#7" y="26.052"/><use xlink:href="#8" y="30.394"/><use xlink:href="#12" y="34.736"/><use xlink:href="#5" y="39.078"/><use xlink:href="#7" y="41.249"/><use xlink:href="#8" y="45.591"/><use xlink:href="#13" y="49.933"/></svg><svg x="4800"><use xlink:href="#a"/><use xlink:href="#b" x="22.996" y="54.25"/><use xlink:href="#5"/><use xlink:href="#7" y="2.171"/><use xlink:href="#8" y="6.513"/><use xlink:href="#9" y="10.855"/><use xlink:href="#10" y="15.197"/><use xlink:href="#11" y="19.539"/><use xlink:href="#5" y="23.881"/><use xlink:href="#7" y="26.052"/><use xlink:href="#8" y="30.394"/><use xlink:href="#12" y="34.736"/><use xlink:href="#5" y="39.078"/><use xlink:href="#7" y="41.249"/><use xlink:href="#8" y="45.591"/><use xlink:href="#13" y="49.933"/><use xlink:href="#4" y="54.275"/></svg><svg x="4900"><use xlink:href="#a"/><use xlink:href="#b" x="-.004" y="54.25"/><use xlink:href="#5"/><use xlink:href="#7" y="2.171"/><use xlink:href="#8" y="6.513"/><use xlink:href="#9" y="10.855"/><use xlink:href="#10" y="15.197"/><use xlink:href="#11" y="19.539"/><use xlink:href="#5" y="23.881"/><use xlink:href="#7" y="26.052"/><use xlink:href="#8" y="30.394"/><use xlink:href="#12" y="34.736"/><use xlink:href="#5" y="39.078"/><use xlink:href="#7" y="41.249"/><use xlink:href="#8" y="45.591"/><use xlink:href="#13" y="49.933"/></svg><svg x="5000"><use xlink:href="#a"/><use xlink:href="#b" x="-.004" y="54.25"/><use xlink:href="#7"/><use xlink:href="#8" y="4.342"/><use xlink:href="#9" y="8.684"/><use xlink:href="#10" y="13.026"/><use xlink:href="#11" y="17.368"/><use xlink:href="#5" y="21.71"/><use xlink:href="#7" y="23.881"/><use xlink:href="#8" y="28.223"/><use xlink:href="#12" y="32.565"/><use xlink:href="#5" y="36.907"/><use xlink:href="#7" y="39.078"/><use xlink:href="#8" y="43.42"/><use xlink:href="#13" y="47.762"/><use xlink:href="#5" y="52.104"/></svg><svg x="5100"><use xlink:href="#a"/><use xlink:href="#b" x="21.996" y="54.25"/><use xlink:href="#7"/><use xlink:href="#8" y="4.342"/><use xlink:href="#9" y="8.684"/><use xlink:href="#10" y="13.026"/><use xlink:href="#11" y="17.368"/><use xlink:href="#5" y="21.71"/><use xlink:href="#7" y="23.881"/><use xlink:href="#8" y="28.223"/><use xlink:href="#12" y="32.565"/><use xlink:href="#5" y="36.907"/><use xlink:href="#7" y="39.078"/><use xlink:href="#8" y="43.42"/><use xlink:href="#13" y="47.762"/><use xlink:href="#5" y="52.104"/><use xlink:href="#6" y="54.275"/></svg><svg x="5200"><use xlink:href="#a"/><use xlink:href="#b" x="-.004" y="54.25"/><use xlink:href="#7"/><use xlink:href="#8" y="4.342"/><use xlink:href="#9" y="8.684"/><use xlink:href="#10" y="13.026"/><use xlink:href="#11" y="17.368"/><use xlink:href="#5" y="21.71"/><use xlink:href="#7" y="23.881"/><use xlink:href="#8" y="28.223"/><use xlink:href="#12" y="32.565"/><use xlink:href="#5" y="36.907"/><use xlink:href="#7" y="39.078"/><use xlink:href="#8" y="43.42"/><use xlink:href="#13" y="47.762"/><use xlink:href="#5" y="52.104"/></svg><svg x="5300"><use xlink:href="#a"/><use xlink:href="#b" x="39.996" y="54.25"/><use xlink:href="#7"/><use xlink:href="#8" y="4.342"/><use xlink:href="#9" y="8.684"/><use xlink:href="#10" y="13.026"/><use xlink:href="#11" y="17.368"/><use xlink:href="#5" y="21.71"/><use xlink:href="#7" y="23.881"/><use xlink:href="#8" y="28.223"/><use xlink:href="#12" y="32.565"/><use xlink:href="#5" y="36.907"/><use xlink:href="#7" y="39.078"/><use xlink:href="#8" y="43.42"/><use xlink:href="#13" y="47.762"/><use xlink:href="#5" y="52.104"/><text x="2.004" y="55.945" class="c">[â ‹]</text><text x="6.012" y="55.945" class="c">Stopping</text><text x="15.03" y="55.945" class="c">container</text><text x="25.05" y="55.945" class="c">with</text><text x="30.06" y="55.945" class="c">port</text><text x="35.07" y="55.945" class="c">80...</text></svg><svg x="5400"><use xlink:href="#a"/><use xlink:href="#b" x="44.996" y="54.25"/><use xlink:href="#7"/><use xlink:href="#8" y="4.342"/><use xlink:href="#9" y="8.684"/><use xlink:href="#10" y="13.026"/><use xlink:href="#11" y="17.368"/><use xlink:href="#5" y="21.71"/><use xlink:href="#7" y="23.881"/><use xlink:href="#8" y="28.223"/><use xlink:href="#12" y="32.565"/><use xlink:href="#5" y="36.907"/><use xlink:href="#7" y="39.078"/><use xlink:href="#8" y="43.42"/><use xlink:href="#13" y="47.762"/><use xlink:href="#5" y="52.104"/><text x="2.004" y="55.945" class="c">[â ™]</text><text x="6.012" y="55.945" class="c">Stopping</text><text x="15.03" y="55.945" class="c">container</text><text x="25.05" y="55.945" class="c">with</text><text x="30.06" y="55.945" class="c">port</text><text x="35.07" y="55.945" class="c">80...</text><text x="41.082" y="55.945" class="c">(0s)</text></svg><svg x="5500"><use xlink:href="#a"/><use xlink:href="#b" x="44.996" y="54.25"/><use xlink:href="#7"/><use xlink:href="#8" y="4.342"/><use xlink:href="#9" y="8.684"/><use xlink:href="#10" y="13.026"/><use xlink:href="#11" y="17.368"/><use xlink:href="#5" y="21.71"/><use xlink:href="#7" y="23.881"/><use xlink:href="#8" y="28.223"/><use xlink:href="#12" y="32.565"/><use xlink:href="#5" y="36.907"/><use xlink:href="#7" y="39.078"/><use xlink:href="#8" y="43.42"/><use xlink:href="#13" y="47.762"/><use xlink:href="#5" y="52.104"/><text x="2.004" y="55.945" class="c">[â ¹]</text><text x="6.012" y="55.945" class="c">Stopping</text><text x="15.03" y="55.945" class="c">container</text><text x="25.05" y="55.945" class="c">with</text><text x="30.06" y="55.945" class="c">port</text><text x="35.07" y="55.945" class="c">80...</text><text x="41.082" y="55.945" class="c">(0s)</text></svg><svg x="5600"><use xlink:href="#a"/><use xlink:href="#b" x="44.996" y="54.25"/><use xlink:href="#7"/><use xlink:href="#8" y="4.342"/><use xlink:href="#9" y="8.684"/><use xlink:href="#10" y="13.026"/><use xlink:href="#11" y="17.368"/><use xlink:href="#5" y="21.71"/><use xlink:href="#7" y="23.881"/><use xlink:href="#8" y="28.223"/><use xlink:href="#12" y="32.565"/><use xlink:href="#5" y="36.907"/><use xlink:href="#7" y="39.078"/><use xlink:href="#8" y="43.42"/><use xlink:href="#13" y="47.762"/><use xlink:href="#5" y="52.104"/><text x="2.004" y="55.945" class="c">[â ¸]</text><text x="6.012" y="55.945" class="c">Stopping</text><text x="15.03" y="55.945" class="c">container</text><text x="25.05" y="55.945" class="c">with</text><text x="30.06" y="55.945" class="c">port</text><text x="35.07" y="55.945" class="c">80...</text><text x="41.082" y="55.945" class="c">(0s)</text></svg><svg x="5700"><use xlink:href="#a"/><use xlink:href="#b" x="44.996" y="54.25"/><use xlink:href="#7"/><use xlink:href="#8" y="4.342"/><use xlink:href="#9" y="8.684"/><use xlink:href="#10" y="13.026"/><use xlink:href="#11" y="17.368"/><use xlink:href="#5" y="21.71"/><use xlink:href="#7" y="23.881"/><use xlink:href="#8" y="28.223"/><use xlink:href="#12" y="32.565"/><use xlink:href="#5" y="36.907"/><use xlink:href="#7" y="39.078"/><use xlink:href="#8" y="43.42"/><use xlink:href="#13" y="47.762"/><use xlink:href="#5" y="52.104"/><text x="2.004" y="55.945" class="c">[â ¼]</text><text x="6.012" y="55.945" class="c">Stopping</text><text x="15.03" y="55.945" class="c">container</text><text x="25.05" y="55.945" class="c">with</text><text x="30.06" y="55.945" class="c">port</text><text x="35.07" y="55.945" class="c">80...</text><text x="41.082" y="55.945" class="c">(0s)</text></svg><svg x="5800"><use xlink:href="#a"/><use xlink:href="#b" x="44.996" y="54.25"/><use xlink:href="#7"/><use xlink:href="#8" y="4.342"/><use xlink:href="#9" y="8.684"/><use xlink:href="#10" y="13.026"/><use xlink:href="#11" y="17.368"/><use xlink:href="#5" y="21.71"/><use xlink:href="#7" y="23.881"/><use xlink:href="#8" y="28.223"/><use xlink:href="#12" y="32.565"/><use xlink:href="#5" y="36.907"/><use xlink:href="#7" y="39.078"/><use xlink:href="#8" y="43.42"/><use xlink:href="#13" y="47.762"/><use xlink:href="#5" y="52.104"/><text x="2.004" y="55.945" class="c">[â ´]</text><text x="6.012" y="55.945" class="c">Stopping</text><text x="15.03" y="55.945" class="c">container</text><text x="25.05" y="55.945" class="c">with</text><text x="30.06" y="55.945" class="c">port</text><text x="35.07" y="55.945" class="c">80...</text><text x="41.082" y="55.945" class="c">(0s)</text></svg><svg x="5900"><use xlink:href="#a"/><use xlink:href="#b" x="44.996" y="54.25"/><use xlink:href="#7"/><use xlink:href="#8" y="4.342"/><use xlink:href="#9" y="8.684"/><use xlink:href="#10" y="13.026"/><use xlink:href="#11" y="17.368"/><use xlink:href="#5" y="21.71"/><use xlink:href="#7" y="23.881"/><use xlink:href="#8" y="28.223"/><use xlink:href="#12" y="32.565"/><use xlink:href="#5" y="36.907"/><use xlink:href="#7" y="39.078"/><use xlink:href="#8" y="43.42"/><use xlink:href="#13" y="47.762"/><use xlink:href="#5" y="52.104"/><text x="2.004" y="55.945" class="c">[â ¦]</text><text x="6.012" y="55.945" class="c">Stopping</text><text x="15.03" y="55.945" class="c">container</text><text x="25.05" y="55.945" class="c">with</text><text x="30.06" y="55.945" class="c">port</text><text x="35.07" y="55.945" class="c">80...</text><text x="41.082" y="55.945" class="c">(0s)</text></svg><svg x="6000"><use xlink:href="#a"/><use xlink:href="#b" x="44.996" y="54.25"/><use xlink:href="#7"/><use xlink:href="#8" y="4.342"/><use xlink:href="#9" y="8.684"/><use xlink:href="#10" y="13.026"/><use xlink:href="#11" y="17.368"/><use xlink:href="#5" y="21.71"/><use xlink:href="#7" y="23.881"/><use xlink:href="#8" y="28.223"/><use xlink:href="#12" y="32.565"/><use xlink:href="#5" y="36.907"/><use xlink:href="#7" y="39.078"/><use xlink:href="#8" y="43.42"/><use xlink:href="#13" y="47.762"/><use xlink:href="#5" y="52.104"/><text x="2.004" y="55.945" class="c">[â §]</text><text x="6.012" y="55.945" class="c">Stopping</text><text x="15.03" y="55.945" class="c">container</text><text x="25.05" y="55.945" class="c">with</text><text x="30.06" y="55.945" class="c">port</text><text x="35.07" y="55.945" class="c">80...</text><text x="41.082" y="55.945" class="c">(0s)</text></svg><svg x="6100"><use xlink:href="#a"/><use xlink:href="#b" x="44.996" y="54.25"/><use xlink:href="#7"/><use xlink:href="#8" y="4.342"/><use xlink:href="#9" y="8.684"/><use xlink:href="#10" y="13.026"/><use xlink:href="#11" y="17.368"/><use xlink:href="#5" y="21.71"/><use xlink:href="#7" y="23.881"/><use xlink:href="#8" y="28.223"/><use xlink:href="#12" y="32.565"/><use xlink:href="#5" y="36.907"/><use xlink:href="#7" y="39.078"/><use xlink:href="#8" y="43.42"/><use xlink:href="#13" y="47.762"/><use xlink:href="#5" y="52.104"/><text x="2.004" y="55.945" class="c">[â ‡]</text><text x="6.012" y="55.945" class="c">Stopping</text><text x="15.03" y="55.945" class="c">container</text><text x="25.05" y="55.945" class="c">with</text><text x="30.06" y="55.945" class="c">port</text><text x="35.07" y="55.945" class="c">80...</text><text x="41.082" y="55.945" class="c">(0s)</text></svg><svg x="6200"><use xlink:href="#a"/><use xlink:href="#b" x="-.004" y="54.25"/><use xlink:href="#7"/><use xlink:href="#8" y="4.342"/><use xlink:href="#9" y="8.684"/><use xlink:href="#10" y="13.026"/><use xlink:href="#11" y="17.368"/><use xlink:href="#5" y="21.71"/><use xlink:href="#7" y="23.881"/><use xlink:href="#8" y="28.223"/><use xlink:href="#12" y="32.565"/><use xlink:href="#5" y="36.907"/><use xlink:href="#7" y="39.078"/><use xlink:href="#8" y="43.42"/><use xlink:href="#13" y="47.762"/><use xlink:href="#5" y="52.104"/></svg><svg x="6300"><use xlink:href="#a"/><use xlink:href="#b" x="-.004" y="54.25"/><use xlink:href="#8" y="2.171"/><use xlink:href="#9" y="6.513"/><use xlink:href="#10" y="10.855"/><use xlink:href="#11" y="15.197"/><use xlink:href="#5" y="19.539"/><use xlink:href="#7" y="21.71"/><use xlink:href="#8" y="26.052"/><use xlink:href="#12" y="30.394"/><use xlink:href="#5" y="34.736"/><use xlink:href="#7" y="36.907"/><use xlink:href="#8" y="41.249"/><use xlink:href="#13" y="45.591"/><use xlink:href="#5" y="49.933"/><use xlink:href="#14" y="52.104"/></svg><svg x="6400"><use xlink:href="#a"/><use xlink:href="#b" x="-.004" y="54.25"/><use xlink:href="#8"/><use xlink:href="#9" y="4.342"/><use xlink:href="#10" y="8.684"/><use xlink:href="#11" y="13.026"/><use xlink:href="#5" y="17.368"/><use xlink:href="#7" y="19.539"/><use xlink:href="#8" y="23.881"/><use xlink:href="#12" y="28.223"/><use xlink:href="#5" y="32.565"/><use xlink:href="#7" y="34.736"/><use xlink:href="#8" y="39.078"/><use xlink:href="#13" y="43.42"/><use xlink:href="#5" y="47.762"/><use xlink:href="#14" y="49.933"/></svg></svg></g></g></svg></svg>