<svg xmlns="http://www.w3.org/2000/svg" xmlns:xlink="http://www.w3.org/1999/xlink" width="1000" height="582.75"><rect width="1000" height="582.75" rx="0" ry="0" class="a"/><svg height="542.75" viewBox="0 0 100 54.275" width="1000" xmlns="http://www.w3.org/2000/svg" xmlns:xlink="http://www.w3.org/1999/xlink" y="20"><style>@keyframes j{0%{transform:translateX(0)}1.6%{transform:translateX(-100px)}1.7%{transform:translateX(-200px)}2%{transform:translateX(-300px)}2.2%{transform:translateX(-500px)}2.7%{transform:translateX(-600px)}2.8%{transform:translateX(-700px)}4%{transform:translateX(-800px)}4.4%{transform:translateX(-900px)}9.1%{transform:translateX(-1000px)}9.3%{transform:translateX(-1100px)}10%{transform:translateX(-1200px)}10.4%{transform:translateX(-1300px)}15%{transform:translateX(-1400px)}15.3%{transform:translateX(-1500px)}16.2%{transform:translateX(-1600px)}16.7%{transform:translateX(-1700px)}21.1%{transform:translateX(-1800px)}21.5%{transform:translateX(-1900px)}22.5%{transform:translateX(-2000px)}23.1%{transform:translateX(-2100px)}27.7%{transform:translateX(-2200px)}27.9%{transform:translateX(-2300px)}28.8%{transform:translateX(-2400px)}29.1%{transform:translateX(-2500px)}33.6%{transform:translateX(-2600px)}33.9%{transform:translateX(-2700px)}34.7%{transform:translateX(-2800px)}35%{transform:translateX(-2900px)}39.7%{transform:translateX(-3000px)}40%{transform:translateX(-3100px)}41%{transform:translateX(-3200px)}41.5%{transform:translateX(-3300px)}46.1%{transform:translateX(-3400px)}46.3%{transform:translateX(-3500px)}47%{transform:translateX(-3600px)}47.4%{transform:translateX(-3700px)}52%{transform:translateX(-3800px)}52.3%{transform:translateX(-3900px)}53%{transform:translateX(-4000px)}53.4%{transform:translateX(-4100px)}57.8%{transform:translateX(-4200px)}58%{transform:translateX(-4300px)}58.7%{transform:translateX(-4400px)}59%{transform:translateX(-4500px)}63.6%{transform:translateX(-4600px)}68.4%{transform:translateX(-4700px)}73.2%{transform:translateX(-4800px)}77.7%{transform:translateX(-4900px)}78%{transform:translateX(-5000px)}78.1%{transform:translateX(-5200px)}78.9%{transform:translateX(-5300px)}79.3%{transform:translateX(-5400px)}84.1%{transform:translateX(-5500px)}88.9%{transform:translateX(-5600px)}93.6%{transform:translateX(-5700px)}98.1%{transform:translateX(-5800px)}98.4%{transform:translateX(-6100px)}99.5%{transform:translateX(-6200px)}99.7%{transform:translateX(-6300px)}to{transform:translateX(-6700px)}}.a{fill:#282d35}.c,.d{fill:#b9c0cb}.c{white-space:pre}.d{font-weight:700}.d,.e,.f,.g{white-space:pre}.e{font-weight:700;text-decoration:underline;fill:#b9c0cb}.f,.g{fill:#a8cc8c}.g{fill:#e88388}</style><g font-family="Monaco,Consolas,Menlo,'Bitstream Vera Sans Mono','Powerline Symbols',monospace" font-size="1.67"><defs><symbol id="15"><text x="2.004" y="1.67" class="c">[⠋]</text><text x="6.012" y="1.67" class="c">Converting</text><text x="17.034" y="1.67" class="c">to</text><text x="20.04" y="1.67" class="c">512x512</text></symbol><symbol id="1"><text x="2.004" y="1.67" class="c">⚘</text><text x="5.01" y="1.67" class="d">Converting</text><text x="16.032" y="1.67" class="d">file</text><text x="21.042" y="1.67" class="d">to</text><text x="24.048" y="1.67" class="d">icns/iconset</text></symbol><symbol id="3"><text x="2.004" y="1.67" class="e">Creating</text><text x="11.022" y="1.67" class="e">iconset</text></symbol><symbol id="4"><text x="2.004" y="1.67" class="c">[</text><text x="3.006" y="1.67" class="f">✓</text><text x="4.008" y="1.67" class="c">]</text><text x="6.012" y="1.67" class="c">Successfully</text><text x="19.038" y="1.67" class="c">convert</text><text x="27.054" y="1.67" class="c">to</text><text x="30.06" y="1.67" class="c">16x16.png</text><text x="40.08" y="1.67" class="c">(0s)</text></symbol><symbol id="5"><text x="2.004" y="1.67" class="c">[⠋]</text><text x="6.012" y="1.67" class="c">Converting</text><text x="17.034" y="1.67" class="c">to</text><text x="20.04" y="1.67" class="c">32x32</text></symbol><symbol id="6"><text x="2.004" y="1.67" class="c">[⠙]</text><text x="6.012" y="1.67" class="c">Converting</text><text x="17.034" y="1.67" class="c">to</text><text x="20.04" y="1.67" class="c">32x32</text><text x="26.052" y="1.67" class="c">(0s)</text></symbol><symbol id="7"><text x="2.004" y="1.67" class="c">[</text><text x="3.006" y="1.67" class="f">✓</text><text x="4.008" y="1.67" class="c">]</text><text x="6.012" y="1.67" class="c">Successfully</text><text x="19.038" y="1.67" class="c">convert</text><text x="27.054" y="1.67" class="c">to</text><text x="30.06" y="1.67" class="c">16x16@2x.png</text><text x="43.086" y="1.67" class="c">(0s)</text></symbol><symbol id="8"><text x="2.004" y="1.67" class="c">[</text><text x="3.006" y="1.67" class="f">✓</text><text x="4.008" y="1.67" class="c">]</text><text x="6.012" y="1.67" class="c">Successfully</text><text x="19.038" y="1.67" class="c">convert</text><text x="27.054" y="1.67" class="c">to</text><text x="30.06" y="1.67" class="c">32x32.png</text><text x="40.08" y="1.67" class="c">(0s)</text></symbol><symbol id="9"><text x="2.004" y="1.67" class="c">[</text><text x="3.006" y="1.67" class="f">✓</text><text x="4.008" y="1.67" class="c">]</text><text x="6.012" y="1.67" class="c">Successfully</text><text x="19.038" y="1.67" class="c">convert</text><text x="27.054" y="1.67" class="c">to</text><text x="30.06" y="1.67" class="c">32x32@2x.png</text><text x="43.086" y="1.67" class="c">(0s)</text></symbol><symbol id="10"><text x="2.004" y="1.67" class="c">[</text><text x="3.006" y="1.67" class="f">✓</text><text x="4.008" y="1.67" class="c">]</text><text x="6.012" y="1.67" class="c">Successfully</text><text x="19.038" y="1.67" class="c">convert</text><text x="27.054" y="1.67" class="c">to</text><text x="30.06" y="1.67" class="c">128x128.png</text><text x="42.084" y="1.67" class="c">(0s)</text></symbol><symbol id="11"><text x="2.004" y="1.67" class="c">[⠋]</text><text x="6.012" y="1.67" class="c">Converting</text><text x="17.034" y="1.67" class="c">to</text><text x="20.04" y="1.67" class="c">256x256</text></symbol><symbol id="12"><text x="2.004" y="1.67" class="c">[⠙]</text><text x="6.012" y="1.67" class="c">Converting</text><text x="17.034" y="1.67" class="c">to</text><text x="20.04" y="1.67" class="c">256x256</text><text x="28.056" y="1.67" class="c">(0s)</text></symbol><symbol id="13"><text x="2.004" y="1.67" class="c">[</text><text x="3.006" y="1.67" class="f">✓</text><text x="4.008" y="1.67" class="c">]</text><text x="6.012" y="1.67" class="c">Successfully</text><text x="19.038" y="1.67" class="c">convert</text><text x="27.054" y="1.67" class="c">to</text><text x="30.06" y="1.67" class="c">128x128@2x.png</text><text x="45.09" y="1.67" class="c">(1s)</text></symbol><symbol id="14"><text x="2.004" y="1.67" class="c">[</text><text x="3.006" y="1.67" class="f">✓</text><text x="4.008" y="1.67" class="c">]</text><text x="6.012" y="1.67" class="c">Successfully</text><text x="19.038" y="1.67" class="c">convert</text><text x="27.054" y="1.67" class="c">to</text><text x="30.06" y="1.67" class="c">256x256.png</text><text x="42.084" y="1.67" class="c">(1s)</text></symbol><symbol id="2"><text x="2.004" y="1.67" class="c">└──────────────────────────────────────────────────────────────────────○</text></symbol><symbol id="16"><text x="2.004" y="1.67" class="c">[⠙]</text><text x="6.012" y="1.67" class="c">Converting</text><text x="17.034" y="1.67" class="c">to</text><text x="20.04" y="1.67" class="c">512x512</text><text x="28.056" y="1.67" class="c">(0s)</text></symbol><symbol id="17"><text x="2.004" y="1.67" class="c">[</text><text x="3.006" y="1.67" class="f">✓</text><text x="4.008" y="1.67" class="c">]</text><text x="6.012" y="1.67" class="c">Successfully</text><text x="19.038" y="1.67" class="c">convert</text><text x="27.054" y="1.67" class="c">to</text><text x="30.06" y="1.67" class="c">256x256@2x.png</text><text x="45.09" y="1.67" class="c">(1s)</text></symbol><symbol id="18"><text x="2.004" y="1.67" class="c">[</text><text x="3.006" y="1.67" class="f">✓</text><text x="4.008" y="1.67" class="c">]</text><text x="6.012" y="1.67" class="c">Successfully</text><text x="19.038" y="1.67" class="c">convert</text><text x="27.054" y="1.67" class="c">to</text><text x="30.06" y="1.67" class="c">512x512.png</text><text x="42.084" y="1.67" class="c">(1s)</text></symbol><symbol id="19"><text x="2.004" y="1.67" class="c">[</text><text x="3.006" y="1.67" class="f">✓</text><text x="4.008" y="1.67" class="c">]</text><text x="6.012" y="1.67" class="c">Successfully</text><text x="19.038" y="1.67" class="c">convert</text><text x="27.054" y="1.67" class="c">to</text><text x="30.06" y="1.67" class="c">512x512@2x.png</text><text x="45.09" y="1.67" class="c">(2s)</text></symbol><symbol id="20"><text x="2.004" y="1.67" class="g">▸</text><text x="4.008" y="1.67" class="c">1/3</text></symbol><symbol id="21"><text x="2.004" y="1.67" class="e">Creating</text><text x="11.022" y="1.67" class="e">icns</text><text x="16.032" y="1.67" class="e">file</text></symbol><symbol id="22"><text x="2.004" y="1.67" class="c">[</text><text x="3.006" y="1.67" class="f">✓</text><text x="4.008" y="1.67" class="c">]</text><text x="6.012" y="1.67" class="c">Successfully</text><text x="19.038" y="1.67" class="c">created</text><text x="27.054" y="1.67" class="c">icns</text><text x="32.064" y="1.67" class="c">(2s)</text></symbol><symbol id="23"><text x="2.004" y="1.67" class="g">▸</text><text x="4.008" y="1.67" class="c">2/3</text></symbol><symbol id="24"><text x="2.004" y="1.67" class="e">Removing</text><text x="11.022" y="1.67" class="e">iconset</text></symbol><symbol id="25"><text x="2.004" y="1.67" class="c">[</text><text x="3.006" y="1.67" class="f">✓</text><text x="4.008" y="1.67" class="c">]</text><text x="6.012" y="1.67" class="c">Successfully</text><text x="19.038" y="1.67" class="c">removed</text><text x="27.054" y="1.67" class="c">(2s)</text></symbol><symbol id="26"><text x="2.004" y="1.67" class="g">▸</text><text x="4.008" y="1.67" class="c">3/3</text></symbol><symbol id="27"><text x="2.004" y="1.67" class="c">Done</text><text x="7.014" y="1.67" class="c">after</text><text x="13.026" y="1.67" class="c">2s</text></symbol><symbol id="a"><path fill="transparent" d="M0 0h100v26H0z"/></symbol><symbol id="b"><path fill="#6f7683" d="M0 0h1.102v2.171H0z"/></symbol></defs><path class="a" d="M0 0h100v54.275H0z"/><g style="animation-duration:2.335552s;animation-iteration-count:infinite;animation-name:j;animation-timing-function:steps(1,end)"><svg width="6800"><svg><use xlink:href="#a"/><use xlink:href="#b" x="-.004"/></svg><svg x="100"><use xlink:href="#a"/><use xlink:href="#b" x="-.004"/></svg><svg x="200"><use xlink:href="#a"/><use xlink:href="#b" x="1.996"/></svg><svg x="300"><use xlink:href="#a"/><use xlink:href="#b" x="-.004" y="4.317"/><use xlink:href="#1" y="2.171"/></svg><svg x="400"><use xlink:href="#a"/><use xlink:href="#b" x="-.004" y="6.488"/><use xlink:href="#1" y="2.171"/><use xlink:href="#2" y="4.342"/></svg><svg x="500"><use xlink:href="#a"/><use xlink:href="#b" x="-.004" y="8.659"/><use xlink:href="#1" y="2.171"/><use xlink:href="#2" y="4.342"/></svg><svg x="600"><use xlink:href="#a"/><use xlink:href="#b" x="-.004" y="10.83"/><use xlink:href="#1" y="2.171"/><use xlink:href="#2" y="4.342"/><use xlink:href="#3" y="8.684"/></svg><svg x="700"><use xlink:href="#a"/><use xlink:href="#b" x="-.004" y="13.001"/><use xlink:href="#1" y="2.171"/><use xlink:href="#2" y="4.342"/><use xlink:href="#3" y="8.684"/></svg><svg x="800"><use xlink:href="#a"/><use xlink:href="#b" x="24.996" y="13.001"/><use xlink:href="#1" y="2.171"/><use xlink:href="#2" y="4.342"/><use xlink:href="#3" y="8.684"/><text x="2.004" y="14.696" class="c">[⠋]</text><text x="6.012" y="14.696" class="c">Converting</text><text x="17.034" y="14.696" class="c">to</text><text x="20.04" y="14.696" class="c">16x16</text></svg><svg x="900"><use xlink:href="#a"/><use xlink:href="#b" x="29.996" y="13.001"/><use xlink:href="#1" y="2.171"/><use xlink:href="#2" y="4.342"/><use xlink:href="#3" y="8.684"/><text x="2.004" y="14.696" class="c">[⠙]</text><text x="6.012" y="14.696" class="c">Converting</text><text x="17.034" y="14.696" class="c">to</text><text x="20.04" y="14.696" class="c">16x16</text><text x="26.052" y="14.696" class="c">(0s)</text></svg><svg x="1000"><use xlink:href="#a"/><use xlink:href="#b" x="-.004" y="13.001"/><use xlink:href="#1" y="2.171"/><use xlink:href="#2" y="4.342"/><use xlink:href="#3" y="8.684"/></svg><svg x="1100"><use xlink:href="#a"/><use xlink:href="#b" x="-.004" y="15.172"/><use xlink:href="#1" y="2.171"/><use xlink:href="#2" y="4.342"/><use xlink:href="#3" y="8.684"/><use xlink:href="#4" y="13.026"/></svg><svg x="1200"><use xlink:href="#a"/><use xlink:href="#b" x="24.996" y="15.172"/><use xlink:href="#1" y="2.171"/><use xlink:href="#2" y="4.342"/><use xlink:href="#3" y="8.684"/><use xlink:href="#4" y="13.026"/><use xlink:href="#5" y="15.197"/></svg><svg x="1300"><use xlink:href="#a"/><use xlink:href="#b" x="29.996" y="15.172"/><use xlink:href="#1" y="2.171"/><use xlink:href="#2" y="4.342"/><use xlink:href="#3" y="8.684"/><use xlink:href="#4" y="13.026"/><use xlink:href="#6" y="15.197"/></svg><svg x="1400"><use xlink:href="#a"/><use xlink:href="#b" x="-.004" y="15.172"/><use xlink:href="#1" y="2.171"/><use xlink:href="#2" y="4.342"/><use xlink:href="#3" y="8.684"/><use xlink:href="#4" y="13.026"/></svg><svg x="1500"><use xlink:href="#a"/><use xlink:href="#b" x="-.004" y="17.343"/><use xlink:href="#1" y="2.171"/><use xlink:href="#2" y="4.342"/><use xlink:href="#3" y="8.684"/><use xlink:href="#4" y="13.026"/><use xlink:href="#7" y="15.197"/></svg><svg x="1600"><use xlink:href="#a"/><use xlink:href="#b" x="24.996" y="17.343"/><use xlink:href="#1" y="2.171"/><use xlink:href="#2" y="4.342"/><use xlink:href="#3" y="8.684"/><use xlink:href="#4" y="13.026"/><use xlink:href="#7" y="15.197"/><use xlink:href="#5" y="17.368"/></svg><svg x="1700"><use xlink:href="#a"/><use xlink:href="#b" x="29.996" y="17.343"/><use xlink:href="#1" y="2.171"/><use xlink:href="#2" y="4.342"/><use xlink:href="#3" y="8.684"/><use xlink:href="#4" y="13.026"/><use xlink:href="#7" y="15.197"/><use xlink:href="#6" y="17.368"/></svg><svg x="1800"><use xlink:href="#a"/><use xlink:href="#b" x="-.004" y="17.343"/><use xlink:href="#1" y="2.171"/><use xlink:href="#2" y="4.342"/><use xlink:href="#3" y="8.684"/><use xlink:href="#4" y="13.026"/><use xlink:href="#7" y="15.197"/></svg><svg x="1900"><use xlink:href="#a"/><use xlink:href="#b" x="-.004" y="19.514"/><use xlink:href="#1" y="2.171"/><use xlink:href="#2" y="4.342"/><use xlink:href="#3" y="8.684"/><use xlink:href="#4" y="13.026"/><use xlink:href="#7" y="15.197"/><use xlink:href="#8" y="17.368"/></svg><svg x="2000"><use xlink:href="#a"/><use xlink:href="#b" x="24.996" y="19.514"/><use xlink:href="#1" y="2.171"/><use xlink:href="#2" y="4.342"/><use xlink:href="#3" y="8.684"/><use xlink:href="#4" y="13.026"/><use xlink:href="#7" y="15.197"/><use xlink:href="#8" y="17.368"/><text x="2.004" y="21.209" class="c">[⠋]</text><text x="6.012" y="21.209" class="c">Converting</text><text x="17.034" y="21.209" class="c">to</text><text x="20.04" y="21.209" class="c">64x64</text></svg><svg x="2100"><use xlink:href="#a"/><use xlink:href="#b" x="29.996" y="19.514"/><use xlink:href="#1" y="2.171"/><use xlink:href="#2" y="4.342"/><use xlink:href="#3" y="8.684"/><use xlink:href="#4" y="13.026"/><use xlink:href="#7" y="15.197"/><use xlink:href="#8" y="17.368"/><text x="2.004" y="21.209" class="c">[⠙]</text><text x="6.012" y="21.209" class="c">Converting</text><text x="17.034" y="21.209" class="c">to</text><text x="20.04" y="21.209" class="c">64x64</text><text x="26.052" y="21.209" class="c">(0s)</text></svg><svg x="2200"><use xlink:href="#a"/><use xlink:href="#b" x="-.004" y="19.514"/><use xlink:href="#1" y="2.171"/><use xlink:href="#2" y="4.342"/><use xlink:href="#3" y="8.684"/><use xlink:href="#4" y="13.026"/><use xlink:href="#7" y="15.197"/><use xlink:href="#8" y="17.368"/></svg><svg x="2300"><use xlink:href="#a"/><use xlink:href="#b" x="-.004" y="21.685"/><use xlink:href="#1" y="2.171"/><use xlink:href="#2" y="4.342"/><use xlink:href="#3" y="8.684"/><use xlink:href="#4" y="13.026"/><use xlink:href="#7" y="15.197"/><use xlink:href="#8" y="17.368"/><use xlink:href="#9" y="19.539"/></svg><svg x="2400"><use xlink:href="#a"/><use xlink:href="#b" x="26.996" y="21.685"/><use xlink:href="#1" y="2.171"/><use xlink:href="#2" y="4.342"/><use xlink:href="#3" y="8.684"/><use xlink:href="#4" y="13.026"/><use xlink:href="#7" y="15.197"/><use xlink:href="#8" y="17.368"/><use xlink:href="#9" y="19.539"/><text x="2.004" y="23.38" class="c">[⠋]</text><text x="6.012" y="23.38" class="c">Converting</text><text x="17.034" y="23.38" class="c">to</text><text x="20.04" y="23.38" class="c">128x128</text></svg><svg x="2500"><use xlink:href="#a"/><use xlink:href="#b" x="31.996" y="21.685"/><use xlink:href="#1" y="2.171"/><use xlink:href="#2" y="4.342"/><use xlink:href="#3" y="8.684"/><use xlink:href="#4" y="13.026"/><use xlink:href="#7" y="15.197"/><use xlink:href="#8" y="17.368"/><use xlink:href="#9" y="19.539"/><text x="2.004" y="23.38" class="c">[⠙]</text><text x="6.012" y="23.38" class="c">Converting</text><text x="17.034" y="23.38" class="c">to</text><text x="20.04" y="23.38" class="c">128x128</text><text x="28.056" y="23.38" class="c">(0s)</text></svg><svg x="2600"><use xlink:href="#a"/><use xlink:href="#b" x="-.004" y="21.685"/><use xlink:href="#1" y="2.171"/><use xlink:href="#2" y="4.342"/><use xlink:href="#3" y="8.684"/><use xlink:href="#4" y="13.026"/><use xlink:href="#7" y="15.197"/><use xlink:href="#8" y="17.368"/><use xlink:href="#9" y="19.539"/></svg><svg x="2700"><use xlink:href="#a"/><use xlink:href="#b" x="-.004" y="23.856"/><use xlink:href="#1" y="2.171"/><use xlink:href="#2" y="4.342"/><use xlink:href="#3" y="8.684"/><use xlink:href="#4" y="13.026"/><use xlink:href="#7" y="15.197"/><use xlink:href="#8" y="17.368"/><use xlink:href="#9" y="19.539"/><use xlink:href="#10" y="21.71"/></svg><svg x="2800"><use xlink:href="#a"/><use xlink:href="#b" x="26.996" y="23.856"/><use xlink:href="#1" y="2.171"/><use xlink:href="#2" y="4.342"/><use xlink:href="#3" y="8.684"/><use xlink:href="#4" y="13.026"/><use xlink:href="#7" y="15.197"/><use xlink:href="#8" y="17.368"/><use xlink:href="#9" y="19.539"/><use xlink:href="#10" y="21.71"/><use xlink:href="#11" y="23.881"/></svg><svg x="2900"><use xlink:href="#a"/><use xlink:href="#b" x="31.996" y="23.856"/><use xlink:href="#1" y="2.171"/><use xlink:href="#2" y="4.342"/><use xlink:href="#3" y="8.684"/><use xlink:href="#4" y="13.026"/><use xlink:href="#7" y="15.197"/><use xlink:href="#8" y="17.368"/><use xlink:href="#9" y="19.539"/><use xlink:href="#10" y="21.71"/><use xlink:href="#12" y="23.881"/></svg><svg x="3000"><use xlink:href="#a"/><use xlink:href="#b" x="-.004" y="23.856"/><use xlink:href="#1" y="2.171"/><use xlink:href="#2" y="4.342"/><use xlink:href="#3" y="8.684"/><use xlink:href="#4" y="13.026"/><use xlink:href="#7" y="15.197"/><use xlink:href="#8" y="17.368"/><use xlink:href="#9" y="19.539"/><use xlink:href="#10" y="21.71"/></svg><svg x="3100"><use xlink:href="#a"/><use xlink:href="#b" x="-.004" y="26.027"/><use xlink:href="#1" y="2.171"/><use xlink:href="#2" y="4.342"/><use xlink:href="#3" y="8.684"/><use xlink:href="#4" y="13.026"/><use xlink:href="#7" y="15.197"/><use xlink:href="#8" y="17.368"/><use xlink:href="#9" y="19.539"/><use xlink:href="#10" y="21.71"/><use xlink:href="#13" y="23.881"/></svg><svg x="3200"><use xlink:href="#a"/><use xlink:href="#b" x="26.996" y="26.027"/><use xlink:href="#1" y="2.171"/><use xlink:href="#2" y="4.342"/><use xlink:href="#3" y="8.684"/><use xlink:href="#4" y="13.026"/><use xlink:href="#7" y="15.197"/><use xlink:href="#8" y="17.368"/><use xlink:href="#9" y="19.539"/><use xlink:href="#10" y="21.71"/><use xlink:href="#13" y="23.881"/><use xlink:href="#11" y="26.052"/></svg><svg x="3300"><use xlink:href="#a"/><use xlink:href="#b" x="31.996" y="26.027"/><use xlink:href="#1" y="2.171"/><use xlink:href="#2" y="4.342"/><use xlink:href="#3" y="8.684"/><use xlink:href="#4" y="13.026"/><use xlink:href="#7" y="15.197"/><use xlink:href="#8" y="17.368"/><use xlink:href="#9" y="19.539"/><use xlink:href="#10" y="21.71"/><use xlink:href="#13" y="23.881"/><use xlink:href="#12" y="26.052"/></svg><svg x="3400"><use xlink:href="#a"/><use xlink:href="#b" x="-.004" y="26.027"/><use xlink:href="#1" y="2.171"/><use xlink:href="#2" y="4.342"/><use xlink:href="#3" y="8.684"/><use xlink:href="#4" y="13.026"/><use xlink:href="#7" y="15.197"/><use xlink:href="#8" y="17.368"/><use xlink:href="#9" y="19.539"/><use xlink:href="#10" y="21.71"/><use xlink:href="#13" y="23.881"/></svg><svg x="3500"><use xlink:href="#a"/><use xlink:href="#b" x="-.004" y="28.198"/><use xlink:href="#1" y="2.171"/><use xlink:href="#2" y="4.342"/><use xlink:href="#3" y="8.684"/><use xlink:href="#4" y="13.026"/><use xlink:href="#7" y="15.197"/><use xlink:href="#8" y="17.368"/><use xlink:href="#9" y="19.539"/><use xlink:href="#10" y="21.71"/><use xlink:href="#13" y="23.881"/><use xlink:href="#14" y="26.052"/></svg><svg x="3600"><use xlink:href="#a"/><use xlink:href="#b" x="26.996" y="28.198"/><use xlink:href="#1" y="2.171"/><use xlink:href="#2" y="4.342"/><use xlink:href="#3" y="8.684"/><use xlink:href="#4" y="13.026"/><use xlink:href="#7" y="15.197"/><use xlink:href="#8" y="17.368"/><use xlink:href="#9" y="19.539"/><use xlink:href="#10" y="21.71"/><use xlink:href="#13" y="23.881"/><use xlink:href="#14" y="26.052"/><use xlink:href="#15" y="28.223"/></svg><svg x="3700"><use xlink:href="#a"/><use xlink:href="#b" x="31.996" y="28.198"/><use xlink:href="#1" y="2.171"/><use xlink:href="#2" y="4.342"/><use xlink:href="#3" y="8.684"/><use xlink:href="#4" y="13.026"/><use xlink:href="#7" y="15.197"/><use xlink:href="#8" y="17.368"/><use xlink:href="#9" y="19.539"/><use xlink:href="#10" y="21.71"/><use xlink:href="#13" y="23.881"/><use xlink:href="#14" y="26.052"/><use xlink:href="#16" y="28.223"/></svg><svg x="3800"><use xlink:href="#a"/><use xlink:href="#b" x="-.004" y="28.198"/><use xlink:href="#1" y="2.171"/><use xlink:href="#2" y="4.342"/><use xlink:href="#3" y="8.684"/><use xlink:href="#4" y="13.026"/><use xlink:href="#7" y="15.197"/><use xlink:href="#8" y="17.368"/><use xlink:href="#9" y="19.539"/><use xlink:href="#10" y="21.71"/><use xlink:href="#13" y="23.881"/><use xlink:href="#14" y="26.052"/></svg><svg x="3900"><use xlink:href="#a"/><use xlink:href="#b" x="-.004" y="30.369"/><use xlink:href="#1" y="2.171"/><use xlink:href="#2" y="4.342"/><use xlink:href="#3" y="8.684"/><use xlink:href="#4" y="13.026"/><use xlink:href="#7" y="15.197"/><use xlink:href="#8" y="17.368"/><use xlink:href="#9" y="19.539"/><use xlink:href="#10" y="21.71"/><use xlink:href="#13" y="23.881"/><use xlink:href="#14" y="26.052"/><use xlink:href="#17" y="28.223"/></svg><svg x="4000"><use xlink:href="#a"/><use xlink:href="#b" x="26.996" y="30.369"/><use xlink:href="#1" y="2.171"/><use xlink:href="#2" y="4.342"/><use xlink:href="#3" y="8.684"/><use xlink:href="#4" y="13.026"/><use xlink:href="#7" y="15.197"/><use xlink:href="#8" y="17.368"/><use xlink:href="#9" y="19.539"/><use xlink:href="#10" y="21.71"/><use xlink:href="#13" y="23.881"/><use xlink:href="#14" y="26.052"/><use xlink:href="#17" y="28.223"/><use xlink:href="#15" y="30.394"/></svg><svg x="4100"><use xlink:href="#a"/><use xlink:href="#b" x="31.996" y="30.369"/><use xlink:href="#1" y="2.171"/><use xlink:href="#2" y="4.342"/><use xlink:href="#3" y="8.684"/><use xlink:href="#4" y="13.026"/><use xlink:href="#7" y="15.197"/><use xlink:href="#8" y="17.368"/><use xlink:href="#9" y="19.539"/><use xlink:href="#10" y="21.71"/><use xlink:href="#13" y="23.881"/><use xlink:href="#14" y="26.052"/><use xlink:href="#17" y="28.223"/><use xlink:href="#16" y="30.394"/></svg><svg x="4200"><use xlink:href="#a"/><use xlink:href="#b" x="-.004" y="30.369"/><use xlink:href="#1" y="2.171"/><use xlink:href="#2" y="4.342"/><use xlink:href="#3" y="8.684"/><use xlink:href="#4" y="13.026"/><use xlink:href="#7" y="15.197"/><use xlink:href="#8" y="17.368"/><use xlink:href="#9" y="19.539"/><use xlink:href="#10" y="21.71"/><use xlink:href="#13" y="23.881"/><use xlink:href="#14" y="26.052"/><use xlink:href="#17" y="28.223"/></svg><svg x="4300"><use xlink:href="#a"/><use xlink:href="#b" x="-.004" y="32.54"/><use xlink:href="#1" y="2.171"/><use xlink:href="#2" y="4.342"/><use xlink:href="#3" y="8.684"/><use xlink:href="#4" y="13.026"/><use xlink:href="#7" y="15.197"/><use xlink:href="#8" y="17.368"/><use xlink:href="#9" y="19.539"/><use xlink:href="#10" y="21.71"/><use xlink:href="#13" y="23.881"/><use xlink:href="#14" y="26.052"/><use xlink:href="#17" y="28.223"/><use xlink:href="#18" y="30.394"/></svg><svg x="4400"><use xlink:href="#a"/><use xlink:href="#b" x="28.996" y="32.54"/><use xlink:href="#1" y="2.171"/><use xlink:href="#2" y="4.342"/><use xlink:href="#3" y="8.684"/><use xlink:href="#4" y="13.026"/><use xlink:href="#7" y="15.197"/><use xlink:href="#8" y="17.368"/><use xlink:href="#9" y="19.539"/><use xlink:href="#10" y="21.71"/><use xlink:href="#13" y="23.881"/><use xlink:href="#14" y="26.052"/><use xlink:href="#17" y="28.223"/><use xlink:href="#18" y="30.394"/><text x="2.004" y="34.235" class="c">[⠋]</text><text x="6.012" y="34.235" class="c">Converting</text><text x="17.034" y="34.235" class="c">to</text><text x="20.04" y="34.235" class="c">1024x1024</text></svg><svg x="4500"><use xlink:href="#a"/><use xlink:href="#b" x="33.996" y="32.54"/><use xlink:href="#1" y="2.171"/><use xlink:href="#2" y="4.342"/><use xlink:href="#3" y="8.684"/><use xlink:href="#4" y="13.026"/><use xlink:href="#7" y="15.197"/><use xlink:href="#8" y="17.368"/><use xlink:href="#9" y="19.539"/><use xlink:href="#10" y="21.71"/><use xlink:href="#13" y="23.881"/><use xlink:href="#14" y="26.052"/><use xlink:href="#17" y="28.223"/><use xlink:href="#18" y="30.394"/><text x="2.004" y="34.235" class="c">[⠙]</text><text x="6.012" y="34.235" class="c">Converting</text><text x="17.034" y="34.235" class="c">to</text><text x="20.04" y="34.235" class="c">1024x1024</text><text x="30.06" y="34.235" class="c">(0s)</text></svg><svg x="4600"><use xlink:href="#a"/><use xlink:href="#b" x="33.996" y="32.54"/><use xlink:href="#1" y="2.171"/><use xlink:href="#2" y="4.342"/><use xlink:href="#3" y="8.684"/><use xlink:href="#4" y="13.026"/><use xlink:href="#7" y="15.197"/><use xlink:href="#8" y="17.368"/><use xlink:href="#9" y="19.539"/><use xlink:href="#10" y="21.71"/><use xlink:href="#13" y="23.881"/><use xlink:href="#14" y="26.052"/><use xlink:href="#17" y="28.223"/><use xlink:href="#18" y="30.394"/><text x="2.004" y="34.235" class="c">[⠹]</text><text x="6.012" y="34.235" class="c">Converting</text><text x="17.034" y="34.235" class="c">to</text><text x="20.04" y="34.235" class="c">1024x1024</text><text x="30.06" y="34.235" class="c">(0s)</text></svg><svg x="4700"><use xlink:href="#a"/><use xlink:href="#b" x="33.996" y="32.54"/><use xlink:href="#1" y="2.171"/><use xlink:href="#2" y="4.342"/><use xlink:href="#3" y="8.684"/><use xlink:href="#4" y="13.026"/><use xlink:href="#7" y="15.197"/><use xlink:href="#8" y="17.368"/><use xlink:href="#9" y="19.539"/><use xlink:href="#10" y="21.71"/><use xlink:href="#13" y="23.881"/><use xlink:href="#14" y="26.052"/><use xlink:href="#17" y="28.223"/><use xlink:href="#18" y="30.394"/><text x="2.004" y="34.235" class="c">[⠸]</text><text x="6.012" y="34.235" class="c">Converting</text><text x="17.034" y="34.235" class="c">to</text><text x="20.04" y="34.235" class="c">1024x1024</text><text x="30.06" y="34.235" class="c">(0s)</text></svg><svg x="4800"><use xlink:href="#a"/><use xlink:href="#b" x="33.996" y="32.54"/><use xlink:href="#1" y="2.171"/><use xlink:href="#2" y="4.342"/><use xlink:href="#3" y="8.684"/><use xlink:href="#4" y="13.026"/><use xlink:href="#7" y="15.197"/><use xlink:href="#8" y="17.368"/><use xlink:href="#9" y="19.539"/><use xlink:href="#10" y="21.71"/><use xlink:href="#13" y="23.881"/><use xlink:href="#14" y="26.052"/><use xlink:href="#17" y="28.223"/><use xlink:href="#18" y="30.394"/><text x="2.004" y="34.235" class="c">[⠼]</text><text x="6.012" y="34.235" class="c">Converting</text><text x="17.034" y="34.235" class="c">to</text><text x="20.04" y="34.235" class="c">1024x1024</text><text x="30.06" y="34.235" class="c">(0s)</text></svg><svg x="4900"><use xlink:href="#a"/><use xlink:href="#b" x="-.004" y="32.54"/><use xlink:href="#1" y="2.171"/><use xlink:href="#2" y="4.342"/><use xlink:href="#3" y="8.684"/><use xlink:href="#4" y="13.026"/><use xlink:href="#7" y="15.197"/><use xlink:href="#8" y="17.368"/><use xlink:href="#9" y="19.539"/><use xlink:href="#10" y="21.71"/><use xlink:href="#13" y="23.881"/><use xlink:href="#14" y="26.052"/><use xlink:href="#17" y="28.223"/><use xlink:href="#18" y="30.394"/></svg><svg x="5000"><use xlink:href="#a"/><use xlink:href="#b" x="-.004" y="34.711"/><use xlink:href="#1" y="2.171"/><use xlink:href="#2" y="4.342"/><use xlink:href="#3" y="8.684"/><use xlink:href="#4" y="13.026"/><use xlink:href="#7" y="15.197"/><use xlink:href="#8" y="17.368"/><use xlink:href="#9" y="19.539"/><use xlink:href="#10" y="21.71"/><use xlink:href="#13" y="23.881"/><use xlink:href="#14" y="26.052"/><use xlink:href="#17" y="28.223"/><use xlink:href="#18" y="30.394"/><use xlink:href="#19" y="32.565"/></svg><svg x="5100"><use xlink:href="#a"/><use xlink:href="#b" x="-.004" y="43.395"/><use xlink:href="#1" y="2.171"/><use xlink:href="#2" y="4.342"/><use xlink:href="#3" y="8.684"/><use xlink:href="#4" y="13.026"/><use xlink:href="#7" y="15.197"/><use xlink:href="#8" y="17.368"/><use xlink:href="#9" y="19.539"/><use xlink:href="#10" y="21.71"/><use xlink:href="#13" y="23.881"/><use xlink:href="#14" y="26.052"/><use xlink:href="#17" y="28.223"/><use xlink:href="#18" y="30.394"/><use xlink:href="#19" y="32.565"/><use xlink:href="#20" y="36.907"/><use xlink:href="#21" y="41.249"/></svg><svg x="5200"><use xlink:href="#a"/><use xlink:href="#b" x="-.004" y="45.566"/><use xlink:href="#1" y="2.171"/><use xlink:href="#2" y="4.342"/><use xlink:href="#3" y="8.684"/><use xlink:href="#4" y="13.026"/><use xlink:href="#7" y="15.197"/><use xlink:href="#8" y="17.368"/><use xlink:href="#9" y="19.539"/><use xlink:href="#10" y="21.71"/><use xlink:href="#13" y="23.881"/><use xlink:href="#14" y="26.052"/><use xlink:href="#17" y="28.223"/><use xlink:href="#18" y="30.394"/><use xlink:href="#19" y="32.565"/><use xlink:href="#20" y="36.907"/><use xlink:href="#21" y="41.249"/></svg><svg x="5300"><use xlink:href="#a"/><use xlink:href="#b" x="18.996" y="45.566"/><use xlink:href="#1" y="2.171"/><use xlink:href="#2" y="4.342"/><use xlink:href="#3" y="8.684"/><use xlink:href="#4" y="13.026"/><use xlink:href="#7" y="15.197"/><use xlink:href="#8" y="17.368"/><use xlink:href="#9" y="19.539"/><use xlink:href="#10" y="21.71"/><use xlink:href="#13" y="23.881"/><use xlink:href="#14" y="26.052"/><use xlink:href="#17" y="28.223"/><use xlink:href="#18" y="30.394"/><use xlink:href="#19" y="32.565"/><use xlink:href="#20" y="36.907"/><use xlink:href="#21" y="41.249"/><text x="2.004" y="47.261" class="c">[⠋]</text><text x="6.012" y="47.261" class="c">Creating</text><text x="15.03" y="47.261" class="c">icns</text></svg><svg x="5400"><use xlink:href="#a"/><use xlink:href="#b" x="23.996" y="45.566"/><use xlink:href="#1" y="2.171"/><use xlink:href="#2" y="4.342"/><use xlink:href="#3" y="8.684"/><use xlink:href="#4" y="13.026"/><use xlink:href="#7" y="15.197"/><use xlink:href="#8" y="17.368"/><use xlink:href="#9" y="19.539"/><use xlink:href="#10" y="21.71"/><use xlink:href="#13" y="23.881"/><use xlink:href="#14" y="26.052"/><use xlink:href="#17" y="28.223"/><use xlink:href="#18" y="30.394"/><use xlink:href="#19" y="32.565"/><use xlink:href="#20" y="36.907"/><use xlink:href="#21" y="41.249"/><text x="2.004" y="47.261" class="c">[⠙]</text><text x="6.012" y="47.261" class="c">Creating</text><text x="15.03" y="47.261" class="c">icns</text><text x="20.04" y="47.261" class="c">(0s)</text></svg><svg x="5500"><use xlink:href="#a"/><use xlink:href="#b" x="23.996" y="45.566"/><use xlink:href="#1" y="2.171"/><use xlink:href="#2" y="4.342"/><use xlink:href="#3" y="8.684"/><use xlink:href="#4" y="13.026"/><use xlink:href="#7" y="15.197"/><use xlink:href="#8" y="17.368"/><use xlink:href="#9" y="19.539"/><use xlink:href="#10" y="21.71"/><use xlink:href="#13" y="23.881"/><use xlink:href="#14" y="26.052"/><use xlink:href="#17" y="28.223"/><use xlink:href="#18" y="30.394"/><use xlink:href="#19" y="32.565"/><use xlink:href="#20" y="36.907"/><use xlink:href="#21" y="41.249"/><text x="2.004" y="47.261" class="c">[⠹]</text><text x="6.012" y="47.261" class="c">Creating</text><text x="15.03" y="47.261" class="c">icns</text><text x="20.04" y="47.261" class="c">(0s)</text></svg><svg x="5600"><use xlink:href="#a"/><use xlink:href="#b" x="23.996" y="45.566"/><use xlink:href="#1" y="2.171"/><use xlink:href="#2" y="4.342"/><use xlink:href="#3" y="8.684"/><use xlink:href="#4" y="13.026"/><use xlink:href="#7" y="15.197"/><use xlink:href="#8" y="17.368"/><use xlink:href="#9" y="19.539"/><use xlink:href="#10" y="21.71"/><use xlink:href="#13" y="23.881"/><use xlink:href="#14" y="26.052"/><use xlink:href="#17" y="28.223"/><use xlink:href="#18" y="30.394"/><use xlink:href="#19" y="32.565"/><use xlink:href="#20" y="36.907"/><use xlink:href="#21" y="41.249"/><text x="2.004" y="47.261" class="c">[⠸]</text><text x="6.012" y="47.261" class="c">Creating</text><text x="15.03" y="47.261" class="c">icns</text><text x="20.04" y="47.261" class="c">(0s)</text></svg><svg x="5700"><use xlink:href="#a"/><use xlink:href="#b" x="23.996" y="45.566"/><use xlink:href="#1" y="2.171"/><use xlink:href="#2" y="4.342"/><use xlink:href="#3" y="8.684"/><use xlink:href="#4" y="13.026"/><use xlink:href="#7" y="15.197"/><use xlink:href="#8" y="17.368"/><use xlink:href="#9" y="19.539"/><use xlink:href="#10" y="21.71"/><use xlink:href="#13" y="23.881"/><use xlink:href="#14" y="26.052"/><use xlink:href="#17" y="28.223"/><use xlink:href="#18" y="30.394"/><use xlink:href="#19" y="32.565"/><use xlink:href="#20" y="36.907"/><use xlink:href="#21" y="41.249"/><text x="2.004" y="47.261" class="c">[⠼]</text><text x="6.012" y="47.261" class="c">Creating</text><text x="15.03" y="47.261" class="c">icns</text><text x="20.04" y="47.261" class="c">(0s)</text></svg><svg x="5800"><use xlink:href="#a"/><use xlink:href="#b" x="-.004" y="45.566"/><use xlink:href="#1" y="2.171"/><use xlink:href="#2" y="4.342"/><use xlink:href="#3" y="8.684"/><use xlink:href="#4" y="13.026"/><use xlink:href="#7" y="15.197"/><use xlink:href="#8" y="17.368"/><use xlink:href="#9" y="19.539"/><use xlink:href="#10" y="21.71"/><use xlink:href="#13" y="23.881"/><use xlink:href="#14" y="26.052"/><use xlink:href="#17" y="28.223"/><use xlink:href="#18" y="30.394"/><use xlink:href="#19" y="32.565"/><use xlink:href="#20" y="36.907"/><use xlink:href="#21" y="41.249"/></svg><svg x="5900"><use xlink:href="#a"/><use xlink:href="#b" x="-.004" y="47.737"/><use xlink:href="#1" y="2.171"/><use xlink:href="#2" y="4.342"/><use xlink:href="#3" y="8.684"/><use xlink:href="#4" y="13.026"/><use xlink:href="#7" y="15.197"/><use xlink:href="#8" y="17.368"/><use xlink:href="#9" y="19.539"/><use xlink:href="#10" y="21.71"/><use xlink:href="#13" y="23.881"/><use xlink:href="#14" y="26.052"/><use xlink:href="#17" y="28.223"/><use xlink:href="#18" y="30.394"/><use xlink:href="#19" y="32.565"/><use xlink:href="#20" y="36.907"/><use xlink:href="#21" y="41.249"/><use xlink:href="#22" y="45.591"/></svg><svg x="6000"><use xlink:href="#a"/><use xlink:href="#b" x="-.004" y="54.25"/><use xlink:href="#1" y="2.171"/><use xlink:href="#2" y="4.342"/><use xlink:href="#3" y="8.684"/><use xlink:href="#4" y="13.026"/><use xlink:href="#7" y="15.197"/><use xlink:href="#8" y="17.368"/><use xlink:href="#9" y="19.539"/><use xlink:href="#10" y="21.71"/><use xlink:href="#13" y="23.881"/><use xlink:href="#14" y="26.052"/><use xlink:href="#17" y="28.223"/><use xlink:href="#18" y="30.394"/><use xlink:href="#19" y="32.565"/><use xlink:href="#20" y="36.907"/><use xlink:href="#21" y="41.249"/><use xlink:href="#22" y="45.591"/><use xlink:href="#23" y="49.933"/></svg><svg x="6100"><use xlink:href="#a"/><use xlink:href="#b" x="-.004" y="54.25"/><use xlink:href="#2"/><use xlink:href="#3" y="4.342"/><use xlink:href="#4" y="8.684"/><use xlink:href="#7" y="10.855"/><use xlink:href="#8" y="13.026"/><use xlink:href="#9" y="15.197"/><use xlink:href="#10" y="17.368"/><use xlink:href="#13" y="19.539"/><use xlink:href="#14" y="21.71"/><use xlink:href="#17" y="23.881"/><use xlink:href="#18" y="26.052"/><use xlink:href="#19" y="28.223"/><use xlink:href="#20" y="32.565"/><use xlink:href="#21" y="36.907"/><use xlink:href="#22" y="41.249"/><use xlink:href="#23" y="45.591"/><use xlink:href="#24" y="49.933"/></svg><svg x="6200"><use xlink:href="#a"/><use xlink:href="#b" x="49.996" y="54.25"/><use xlink:href="#2"/><use xlink:href="#3" y="4.342"/><use xlink:href="#4" y="8.684"/><use xlink:href="#7" y="10.855"/><use xlink:href="#8" y="13.026"/><use xlink:href="#9" y="15.197"/><use xlink:href="#10" y="17.368"/><use xlink:href="#13" y="19.539"/><use xlink:href="#14" y="21.71"/><use xlink:href="#17" y="23.881"/><use xlink:href="#18" y="26.052"/><use xlink:href="#19" y="28.223"/><use xlink:href="#20" y="32.565"/><use xlink:href="#21" y="36.907"/><use xlink:href="#22" y="41.249"/><use xlink:href="#23" y="45.591"/><use xlink:href="#24" y="49.933"/><text x="2.004" y="55.945" class="c">[⠋]</text><text x="6.012" y="55.945" class="c">Removing</text><text x="15.03" y="55.945" class="c">../tests/image-to-icns/bash.iconset</text></svg><svg x="6300"><use xlink:href="#a"/><use xlink:href="#b" x="-.004" y="54.25"/><use xlink:href="#2"/><use xlink:href="#3" y="4.342"/><use xlink:href="#4" y="8.684"/><use xlink:href="#7" y="10.855"/><use xlink:href="#8" y="13.026"/><use xlink:href="#9" y="15.197"/><use xlink:href="#10" y="17.368"/><use xlink:href="#13" y="19.539"/><use xlink:href="#14" y="21.71"/><use xlink:href="#17" y="23.881"/><use xlink:href="#18" y="26.052"/><use xlink:href="#19" y="28.223"/><use xlink:href="#20" y="32.565"/><use xlink:href="#21" y="36.907"/><use xlink:href="#22" y="41.249"/><use xlink:href="#23" y="45.591"/><use xlink:href="#24" y="49.933"/></svg><svg x="6400"><use xlink:href="#a"/><use xlink:href="#b" x="-.004" y="54.25"/><use xlink:href="#3" y="2.171"/><use xlink:href="#4" y="6.513"/><use xlink:href="#7" y="8.684"/><use xlink:href="#8" y="10.855"/><use xlink:href="#9" y="13.026"/><use xlink:href="#10" y="15.197"/><use xlink:href="#13" y="17.368"/><use xlink:href="#14" y="19.539"/><use xlink:href="#17" y="21.71"/><use xlink:href="#18" y="23.881"/><use xlink:href="#19" y="26.052"/><use xlink:href="#20" y="30.394"/><use xlink:href="#21" y="34.736"/><use xlink:href="#22" y="39.078"/><use xlink:href="#23" y="43.42"/><use xlink:href="#24" y="47.762"/><use xlink:href="#25" y="52.104"/></svg><svg x="6500"><use xlink:href="#a"/><use xlink:href="#b" x="-.004" y="54.25"/><use xlink:href="#4"/><use xlink:href="#7" y="2.171"/><use xlink:href="#8" y="4.342"/><use xlink:href="#9" y="6.513"/><use xlink:href="#10" y="8.684"/><use xlink:href="#13" y="10.855"/><use xlink:href="#14" y="13.026"/><use xlink:href="#17" y="15.197"/><use xlink:href="#18" y="17.368"/><use xlink:href="#19" y="19.539"/><use xlink:href="#20" y="23.881"/><use xlink:href="#21" y="28.223"/><use xlink:href="#22" y="32.565"/><use xlink:href="#23" y="36.907"/><use xlink:href="#24" y="41.249"/><use xlink:href="#25" y="45.591"/><use xlink:href="#26" y="49.933"/></svg><svg x="6600"><use xlink:href="#a"/><use xlink:href="#b" x="-.004" y="54.25"/><use xlink:href="#8"/><use xlink:href="#9" y="2.171"/><use xlink:href="#10" y="4.342"/><use xlink:href="#13" y="6.513"/><use xlink:href="#14" y="8.684"/><use xlink:href="#17" y="10.855"/><use xlink:href="#18" y="13.026"/><use xlink:href="#19" y="15.197"/><use xlink:href="#20" y="19.539"/><use xlink:href="#21" y="23.881"/><use xlink:href="#22" y="28.223"/><use xlink:href="#23" y="32.565"/><use xlink:href="#24" y="36.907"/><use xlink:href="#25" y="41.249"/><use xlink:href="#26" y="45.591"/><use xlink:href="#27" y="52.104"/></svg><svg x="6700"><use xlink:href="#a"/><use xlink:href="#b" x="-.004" y="54.25"/><use xlink:href="#9"/><use xlink:href="#10" y="2.171"/><use xlink:href="#13" y="4.342"/><use xlink:href="#14" y="6.513"/><use xlink:href="#17" y="8.684"/><use xlink:href="#18" y="10.855"/><use xlink:href="#19" y="13.026"/><use xlink:href="#20" y="17.368"/><use xlink:href="#21" y="21.71"/><use xlink:href="#22" y="26.052"/><use xlink:href="#23" y="30.394"/><use xlink:href="#24" y="34.736"/><use xlink:href="#25" y="39.078"/><use xlink:href="#26" y="43.42"/><use xlink:href="#27" y="49.933"/></svg></svg></g></g></svg></svg>