<svg xmlns="http://www.w3.org/2000/svg" xmlns:xlink="http://www.w3.org/1999/xlink" width="1000" height="582.75"><rect width="1000" height="582.75" rx="0" ry="0" class="a"/><svg height="542.75" viewBox="0 0 100 54.275" width="1000" xmlns="http://www.w3.org/2000/svg" xmlns:xlink="http://www.w3.org/1999/xlink" y="20"><style>@keyframes g{0%{transform:translateX(0)}71.9%{transform:translateX(-100px)}78.1%{transform:translateX(-200px)}85.4%{transform:translateX(-300px)}91.5%{transform:translateX(-400px)}98.9%{transform:translateX(-500px)}99.9%{transform:translateX(-600px)}to{transform:translateX(-700px)}}.a{fill:#282d35}.c,.d{fill:#b9c0cb;white-space:pre}.d{font-weight:700}</style><g font-family="Monaco,Consolas,Menlo,'Bitstream Vera Sans Mono','Powerline Symbols',monospace" font-size="1.67"><defs><symbol id="7"><text x="4.008" y="1.67" class="c">&gt;</text><text x="6.012" y="1.67" class="c">bash</text><text x="11.022" y="1.67" class="c">image-to-icns.sh</text><text x="28.056" y="1.67" class="c">-I</text><text x="31.062" y="1.67" class="c">./path/to/image.svg</text></symbol><symbol id="1"><text x="2.004" y="1.67" class="c">⚘</text><text x="5.01" y="1.67" class="d">Converting</text><text x="16.032" y="1.67" class="d">file</text><text x="21.042" y="1.67" class="d">to</text><text x="24.048" y="1.67" class="d">icns/iconset</text></symbol><symbol id="3"><text x="2.004" y="1.67" class="c">Simple</text><text x="9.018" y="1.67" class="c">script</text><text x="16.032" y="1.67" class="c">to</text><text x="19.038" y="1.67" class="c">create</text><text x="26.052" y="1.67" class="c">an</text><text x="29.058" y="1.67" class="c">icns</text><text x="34.068" y="1.67" class="c">file</text><text x="39.078" y="1.67" class="c">and</text><text x="43.086" y="1.67" class="c">iconset</text><text x="51.102" y="1.67" class="c">from</text><text x="56.112" y="1.67" class="c">any</text><text x="60.12" y="1.67" class="c">image</text><text x="66.132" y="1.67" class="c">file.</text></symbol><symbol id="4"><text x="2.004" y="1.67" class="c">If</text><text x="5.01" y="1.67" class="c">you</text><text x="9.018" y="1.67" class="c">want</text><text x="14.028" y="1.67" class="c">to</text><text x="17.034" y="1.67" class="c">not</text><text x="21.042" y="1.67" class="c">delete</text><text x="28.056" y="1.67" class="c">the</text><text x="32.064" y="1.67" class="c">iconset</text><text x="40.08" y="1.67" class="c">at</text><text x="43.086" y="1.67" class="c">the</text><text x="47.094" y="1.67" class="c">end</text><text x="51.102" y="1.67" class="c">use</text><text x="55.11" y="1.67" class="c">the</text><text x="59.118" y="1.67" class="c">`-I`</text><text x="64.128" y="1.67" class="c">flag.</text></symbol><symbol id="5"><text x="2.004" y="1.67" class="c">Usage:</text></symbol><symbol id="6"><text x="4.008" y="1.67" class="c">&gt;</text><text x="6.012" y="1.67" class="c">bash</text><text x="11.022" y="1.67" class="c">image-to-icns.sh</text><text x="28.056" y="1.67" class="c">./path/to/image.svg</text></symbol><symbol id="2"><text x="2.004" y="1.67" class="c">└──────────────────────────────────────────────────────────────────────○</text></symbol><symbol id="8"><text x="2.004" y="1.67" class="c">Or</text><text x="5.01" y="1.67" class="c">put</text><text x="9.018" y="1.67" class="c">it</text><text x="12.024" y="1.67" class="c">in</text><text x="15.03" y="1.67" class="c">your</text><text x="20.04" y="1.67" class="c">~/.zprofile:</text></symbol><symbol id="9"><text x="4.008" y="1.67" class="c">alias</text><text x="10.02" y="1.67" class="c">icnsc=&quot;bash</text><text x="22.044" y="1.67" class="c">~/.scripts/image-to-icns.sh&quot;</text></symbol><symbol id="10"><text x="2.004" y="1.67" class="c">Done</text><text x="7.014" y="1.67" class="c">after</text><text x="13.026" y="1.67" class="c">0s</text></symbol><symbol id="a"><path fill="transparent" d="M0 0h100v26H0z"/></symbol><symbol id="b"><path fill="#6f7683" d="M0 0h1.102v2.171H0z"/></symbol></defs><path class="a" d="M0 0h100v54.275H0z"/><g style="animation-duration:.035914s;animation-iteration-count:infinite;animation-name:g;animation-timing-function:steps(1,end)"><svg width="800"><svg><use xlink:href="#a"/><use xlink:href="#b" x="-.004"/></svg><svg x="100"><use xlink:href="#a"/><use xlink:href="#b" x="-.004"/></svg><svg x="200"><use xlink:href="#a"/><use xlink:href="#b" x="1.996"/></svg><svg x="300"><use xlink:href="#a"/><use xlink:href="#b" x="-.004" y="4.317"/><use xlink:href="#1" y="2.171"/></svg><svg x="400"><use xlink:href="#a"/><use xlink:href="#b" x="-.004" y="8.659"/><use xlink:href="#1" y="2.171"/><use xlink:href="#2" y="4.342"/></svg><svg x="500"><use xlink:href="#a"/><use xlink:href="#b" x="-.004" y="32.54"/><use xlink:href="#1" y="2.171"/><use xlink:href="#2" y="4.342"/><use xlink:href="#3" y="8.684"/><use xlink:href="#4" y="10.855"/><use xlink:href="#5" y="15.197"/><use xlink:href="#6" y="19.539"/><use xlink:href="#7" y="21.71"/><use xlink:href="#8" y="26.052"/><use xlink:href="#9" y="30.394"/></svg><svg x="600"><use xlink:href="#a"/><use xlink:href="#b" x="-.004" y="36.882"/><use xlink:href="#1" y="2.171"/><use xlink:href="#2" y="4.342"/><use xlink:href="#3" y="8.684"/><use xlink:href="#4" y="10.855"/><use xlink:href="#5" y="15.197"/><use xlink:href="#6" y="19.539"/><use xlink:href="#7" y="21.71"/><use xlink:href="#8" y="26.052"/><use xlink:href="#9" y="30.394"/><use xlink:href="#10" y="34.736"/></svg><svg x="700"><use xlink:href="#a"/><use xlink:href="#b" x="-.004" y="39.053"/><use xlink:href="#1" y="2.171"/><use xlink:href="#2" y="4.342"/><use xlink:href="#3" y="8.684"/><use xlink:href="#4" y="10.855"/><use xlink:href="#5" y="15.197"/><use xlink:href="#6" y="19.539"/><use xlink:href="#7" y="21.71"/><use xlink:href="#8" y="26.052"/><use xlink:href="#9" y="30.394"/><use xlink:href="#10" y="34.736"/></svg></svg></g></g></svg></svg>