<svg xmlns="http://www.w3.org/2000/svg" xmlns:xlink="http://www.w3.org/1999/xlink" width="1000" height="582.75"><rect width="1000" height="582.75" rx="0" ry="0" class="a"/><svg height="542.75" viewBox="0 0 100 54.275" width="1000" xmlns="http://www.w3.org/2000/svg" xmlns:xlink="http://www.w3.org/1999/xlink" y="20"><style>@keyframes i{0%{transform:translateX(0)}.2%{transform:translateX(-100px)}.22%{transform:translateX(-200px)}.24%{transform:translateX(-400px)}.26%{transform:translateX(-500px)}.37%{transform:translateX(-600px)}.41%{transform:translateX(-700px)}8.6%{transform:translateX(-800px)}8.69%{transform:translateX(-900px)}8.72%{transform:translateX(-1000px)}16.44%{transform:translateX(-1100px)}16.53%{transform:translateX(-1200px)}16.56%{transform:translateX(-1300px)}23.46%{transform:translateX(-1400px)}23.53%{transform:translateX(-1500px)}23.55%{transform:translateX(-1600px)}30.12%{transform:translateX(-1700px)}30.19%{transform:translateX(-1800px)}30.23%{transform:translateX(-1900px)}30.79%{transform:translateX(-2000px)}31.37%{transform:translateX(-2100px)}31.95%{transform:translateX(-2200px)}32.5%{transform:translateX(-2300px)}39.23%{transform:translateX(-2400px)}39.29%{transform:translateX(-2500px)}39.33%{transform:translateX(-2600px)}39.9%{transform:translateX(-2700px)}40.48%{transform:translateX(-2800px)}41.05%{transform:translateX(-2900px)}41.62%{transform:translateX(-3000px)}42.21%{transform:translateX(-3100px)}42.78%{transform:translateX(-3200px)}43.37%{transform:translateX(-3300px)}43.96%{transform:translateX(-3400px)}44.52%{transform:translateX(-3500px)}45.09%{transform:translateX(-3600px)}45.66%{transform:translateX(-3700px)}46.24%{transform:translateX(-3800px)}46.81%{transform:translateX(-3900px)}47.36%{transform:translateX(-4000px)}53.92%{transform:translateX(-4100px)}53.98%{transform:translateX(-4200px)}54.02%{transform:translateX(-4300px)}54.59%{transform:translateX(-4400px)}61.07%{transform:translateX(-4500px)}61.13%{transform:translateX(-4600px)}61.17%{transform:translateX(-4700px)}61.76%{transform:translateX(-4800px)}62.35%{transform:translateX(-4900px)}62.92%{transform:translateX(-5000px)}63.5%{transform:translateX(-5100px)}64.08%{transform:translateX(-5200px)}64.65%{transform:translateX(-5300px)}65.2%{transform:translateX(-5400px)}72.02%{transform:translateX(-5500px)}72.09%{transform:translateX(-5600px)}72.13%{transform:translateX(-5700px)}72.68%{transform:translateX(-5800px)}79.17%{transform:translateX(-5900px)}79.24%{transform:translateX(-6000px)}79.26%{transform:translateX(-6100px)}85.86%{transform:translateX(-6200px)}85.93%{transform:translateX(-6300px)}85.98%{transform:translateX(-6400px)}86.53%{transform:translateX(-6500px)}93.08%{transform:translateX(-6600px)}93.16%{transform:translateX(-6700px)}93.2%{transform:translateX(-6800px)}93.76%{transform:translateX(-6900px)}to{transform:translateX(-7100px)}}.a{fill:#282d35}.c{fill:#b9c0cb}.c,.d,.e,.f{white-space:pre}.d{font-weight:700;fill:#b9c0cb}.e,.f{fill:#71bef2}.f{fill:#b9c0cb;text-decoration:underline}</style><g font-family="Monaco,Consolas,Menlo,'Bitstream Vera Sans Mono','Powerline Symbols',monospace" font-size="1.67"><defs><symbol id="9"><text x="2.004" y="1.67" class="c">[</text><text x="3.006" y="1.67" class="e">i</text><text x="4.008" y="1.67" class="c">]</text><text x="6.012" y="1.67" class="c">Already</text><text x="14.028" y="1.67" class="c">excluded</text><text x="23.046" y="1.67" class="f">/Users/marvinheilemann/.scripts</text><text x="55.11" y="1.67" class="c">(61M)</text></symbol><symbol id="1"><text x="2.004" y="1.67" class="c">⚘</text><text x="5.01" y="1.67" class="d">Exclude</text><text x="13.026" y="1.67" class="d">files</text><text x="19.038" y="1.67" class="d">and</text><text x="23.046" y="1.67" class="d">directories</text><text x="35.07" y="1.67" class="d">from</text><text x="40.08" y="1.67" class="d">Time</text><text x="45.09" y="1.67" class="d">Machine</text></symbol><symbol id="3"><text x="2.004" y="1.67" class="c">[</text><text x="3.006" y="1.67" class="e">i</text><text x="4.008" y="1.67" class="c">]</text><text x="6.012" y="1.67" class="c">Already</text><text x="14.028" y="1.67" class="c">excluded</text><text x="23.046" y="1.67" class="f">/Users/marvinheilemann/.3T</text><text x="50.1" y="1.67" class="c">(184K)</text></symbol><symbol id="4"><text x="2.004" y="1.67" class="c">[</text><text x="3.006" y="1.67" class="e">i</text><text x="4.008" y="1.67" class="c">]</text><text x="6.012" y="1.67" class="c">Already</text><text x="14.028" y="1.67" class="c">excluded</text><text x="23.046" y="1.67" class="f">/Users/marvinheilemann/.cache</text><text x="53.106" y="1.67" class="c">(412K)</text></symbol><symbol id="5"><text x="2.004" y="1.67" class="c">[</text><text x="3.006" y="1.67" class="e">i</text><text x="4.008" y="1.67" class="c">]</text><text x="6.012" y="1.67" class="c">Already</text><text x="14.028" y="1.67" class="c">excluded</text><text x="23.046" y="1.67" class="f">/Users/marvinheilemann/.docker</text><text x="54.108" y="1.67" class="c">(45M)</text></symbol><symbol id="6"><text x="2.004" y="1.67" class="c">[</text><text x="3.006" y="1.67" class="e">i</text><text x="4.008" y="1.67" class="c">]</text><text x="6.012" y="1.67" class="c">Already</text><text x="14.028" y="1.67" class="c">excluded</text><text x="23.046" y="1.67" class="f">/Users/marvinheilemann/.gem</text><text x="51.102" y="1.67" class="c">(364K)</text></symbol><symbol id="7"><text x="2.004" y="1.67" class="c">[</text><text x="3.006" y="1.67" class="e">i</text><text x="4.008" y="1.67" class="c">]</text><text x="6.012" y="1.67" class="c">Already</text><text x="14.028" y="1.67" class="c">excluded</text><text x="23.046" y="1.67" class="f">/Users/marvinheilemann/.npm</text><text x="51.102" y="1.67" class="c">(147M)</text></symbol><symbol id="8"><text x="2.004" y="1.67" class="c">[</text><text x="3.006" y="1.67" class="e">i</text><text x="4.008" y="1.67" class="c">]</text><text x="6.012" y="1.67" class="c">Already</text><text x="14.028" y="1.67" class="c">excluded</text><text x="23.046" y="1.67" class="f">/Users/marvinheilemann/.nvm</text><text x="51.102" y="1.67" class="c">(950M)</text></symbol><symbol id="2"><text x="2.004" y="1.67" class="c">└──────────────────────────────────────────────────────────────────────○</text></symbol><symbol id="10"><text x="2.004" y="1.67" class="c">[</text><text x="3.006" y="1.67" class="e">i</text><text x="4.008" y="1.67" class="c">]</text><text x="6.012" y="1.67" class="c">Already</text><text x="14.028" y="1.67" class="c">excluded</text><text x="23.046" y="1.67" class="f">/Users/marvinheilemann/.vscode</text><text x="54.108" y="1.67" class="c">(1,1G)</text></symbol><symbol id="11"><text x="2.004" y="1.67" class="c">[</text><text x="3.006" y="1.67" class="e">i</text><text x="4.008" y="1.67" class="c">]</text><text x="6.012" y="1.67" class="c">Already</text><text x="14.028" y="1.67" class="c">excluded</text><text x="23.046" y="1.67" class="f">/Users/marvinheilemann/.zprezto</text><text x="55.11" y="1.67" class="c">(103M)</text></symbol><symbol id="12"><text x="2.004" y="1.67" class="c">[</text><text x="3.006" y="1.67" class="e">i</text><text x="4.008" y="1.67" class="c">]</text><text x="6.012" y="1.67" class="c">Already</text><text x="14.028" y="1.67" class="c">excluded</text><text x="23.046" y="1.67" class="f">/Users/marvinheilemann/Nextcloud</text><text x="56.112" y="1.67" class="c">(424M)</text></symbol><symbol id="13"><text x="2.004" y="1.67" class="c">[⠋]</text><text x="6.012" y="1.67" class="c">Getting</text><text x="14.028" y="1.67" class="c">file/dir</text><text x="23.046" y="1.67" class="c">size</text><text x="28.056" y="1.67" class="c">for</text><text x="32.064" y="1.67" class="c">/Users/marvinheilemann/RightFont</text></symbol><symbol id="14"><text x="2.004" y="1.67" class="c">[⠙]</text><text x="6.012" y="1.67" class="c">Getting</text><text x="14.028" y="1.67" class="c">file/dir</text><text x="23.046" y="1.67" class="c">size</text><text x="28.056" y="1.67" class="c">for</text><text x="32.064" y="1.67" class="c">/Users/marvinheilemann/RightFont</text><text x="65.13" y="1.67" class="c">(0s)</text></symbol><symbol id="15"><text x="2.004" y="1.67" class="c">[</text><text x="3.006" y="1.67" class="e">i</text><text x="4.008" y="1.67" class="c">]</text><text x="6.012" y="1.67" class="c">Already</text><text x="14.028" y="1.67" class="c">excluded</text><text x="23.046" y="1.67" class="f">/Users/marvinheilemann/RightFont</text><text x="56.112" y="1.67" class="c">(415M)</text></symbol><symbol id="a"><path fill="transparent" d="M0 0h100v26H0z"/></symbol><symbol id="b"><path fill="#6f7683" d="M0 0h1.102v2.171H0z"/></symbol></defs><path class="a" d="M0 0h100v54.275H0z"/><g style="animation-duration:18.740775s;animation-iteration-count:infinite;animation-name:i;animation-timing-function:steps(1,end)"><svg width="7200"><svg><use xlink:href="#a"/><use xlink:href="#b" x="-.004"/></svg><svg x="100"><use xlink:href="#a"/><use xlink:href="#b" x="-.004"/></svg><svg x="200"><use xlink:href="#a"/><use xlink:href="#b" x="1.996"/></svg><svg x="300"><use xlink:href="#a"/><use xlink:href="#b" x="-.004" y="2.146"/></svg><svg x="400"><use xlink:href="#a"/><use xlink:href="#b" x="-.004" y="4.317"/><use xlink:href="#1" y="2.171"/></svg><svg x="500"><use xlink:href="#a"/><use xlink:href="#b" x="-.004" y="8.659"/><use xlink:href="#1" y="2.171"/><use xlink:href="#2" y="4.342"/></svg><svg x="600"><use xlink:href="#a"/><use xlink:href="#b" x="57.996" y="8.659"/><use xlink:href="#1" y="2.171"/><use xlink:href="#2" y="4.342"/><text x="2.004" y="10.354" class="c">[⠋]</text><text x="6.012" y="10.354" class="c">Getting</text><text x="14.028" y="10.354" class="c">file/dir</text><text x="23.046" y="10.354" class="c">size</text><text x="28.056" y="10.354" class="c">for</text><text x="32.064" y="10.354" class="c">/Users/marvinheilemann/.3T</text></svg><svg x="700"><use xlink:href="#a"/><use xlink:href="#b" x="-.004" y="8.659"/><use xlink:href="#1" y="2.171"/><use xlink:href="#2" y="4.342"/></svg><svg x="800"><use xlink:href="#a"/><use xlink:href="#b" x="-.004" y="10.83"/><use xlink:href="#1" y="2.171"/><use xlink:href="#2" y="4.342"/><use xlink:href="#3" y="8.684"/></svg><svg x="900"><use xlink:href="#a"/><use xlink:href="#b" x="60.996" y="10.83"/><use xlink:href="#1" y="2.171"/><use xlink:href="#2" y="4.342"/><use xlink:href="#3" y="8.684"/><text x="2.004" y="12.525" class="c">[⠋]</text><text x="6.012" y="12.525" class="c">Getting</text><text x="14.028" y="12.525" class="c">file/dir</text><text x="23.046" y="12.525" class="c">size</text><text x="28.056" y="12.525" class="c">for</text><text x="32.064" y="12.525" class="c">/Users/marvinheilemann/.cache</text></svg><svg x="1000"><use xlink:href="#a"/><use xlink:href="#b" x="-.004" y="10.83"/><use xlink:href="#1" y="2.171"/><use xlink:href="#2" y="4.342"/><use xlink:href="#3" y="8.684"/></svg><svg x="1100"><use xlink:href="#a"/><use xlink:href="#b" x="-.004" y="13.001"/><use xlink:href="#1" y="2.171"/><use xlink:href="#2" y="4.342"/><use xlink:href="#3" y="8.684"/><use xlink:href="#4" y="10.855"/></svg><svg x="1200"><use xlink:href="#a"/><use xlink:href="#b" x="61.996" y="13.001"/><use xlink:href="#1" y="2.171"/><use xlink:href="#2" y="4.342"/><use xlink:href="#3" y="8.684"/><use xlink:href="#4" y="10.855"/><text x="2.004" y="14.696" class="c">[⠋]</text><text x="6.012" y="14.696" class="c">Getting</text><text x="14.028" y="14.696" class="c">file/dir</text><text x="23.046" y="14.696" class="c">size</text><text x="28.056" y="14.696" class="c">for</text><text x="32.064" y="14.696" class="c">/Users/marvinheilemann/.docker</text></svg><svg x="1300"><use xlink:href="#a"/><use xlink:href="#b" x="-.004" y="13.001"/><use xlink:href="#1" y="2.171"/><use xlink:href="#2" y="4.342"/><use xlink:href="#3" y="8.684"/><use xlink:href="#4" y="10.855"/></svg><svg x="1400"><use xlink:href="#a"/><use xlink:href="#b" x="-.004" y="15.172"/><use xlink:href="#1" y="2.171"/><use xlink:href="#2" y="4.342"/><use xlink:href="#3" y="8.684"/><use xlink:href="#4" y="10.855"/><use xlink:href="#5" y="13.026"/></svg><svg x="1500"><use xlink:href="#a"/><use xlink:href="#b" x="58.996" y="15.172"/><use xlink:href="#1" y="2.171"/><use xlink:href="#2" y="4.342"/><use xlink:href="#3" y="8.684"/><use xlink:href="#4" y="10.855"/><use xlink:href="#5" y="13.026"/><text x="2.004" y="16.867" class="c">[⠋]</text><text x="6.012" y="16.867" class="c">Getting</text><text x="14.028" y="16.867" class="c">file/dir</text><text x="23.046" y="16.867" class="c">size</text><text x="28.056" y="16.867" class="c">for</text><text x="32.064" y="16.867" class="c">/Users/marvinheilemann/.gem</text></svg><svg x="1600"><use xlink:href="#a"/><use xlink:href="#b" x="-.004" y="15.172"/><use xlink:href="#1" y="2.171"/><use xlink:href="#2" y="4.342"/><use xlink:href="#3" y="8.684"/><use xlink:href="#4" y="10.855"/><use xlink:href="#5" y="13.026"/></svg><svg x="1700"><use xlink:href="#a"/><use xlink:href="#b" x="-.004" y="17.343"/><use xlink:href="#1" y="2.171"/><use xlink:href="#2" y="4.342"/><use xlink:href="#3" y="8.684"/><use xlink:href="#4" y="10.855"/><use xlink:href="#5" y="13.026"/><use xlink:href="#6" y="15.197"/></svg><svg x="1800"><use xlink:href="#a"/><use xlink:href="#b" x="58.996" y="17.343"/><use xlink:href="#1" y="2.171"/><use xlink:href="#2" y="4.342"/><use xlink:href="#3" y="8.684"/><use xlink:href="#4" y="10.855"/><use xlink:href="#5" y="13.026"/><use xlink:href="#6" y="15.197"/><text x="2.004" y="19.038" class="c">[⠋]</text><text x="6.012" y="19.038" class="c">Getting</text><text x="14.028" y="19.038" class="c">file/dir</text><text x="23.046" y="19.038" class="c">size</text><text x="28.056" y="19.038" class="c">for</text><text x="32.064" y="19.038" class="c">/Users/marvinheilemann/.npm</text></svg><svg x="1900"><use xlink:href="#a"/><use xlink:href="#b" x="63.996" y="17.343"/><use xlink:href="#1" y="2.171"/><use xlink:href="#2" y="4.342"/><use xlink:href="#3" y="8.684"/><use xlink:href="#4" y="10.855"/><use xlink:href="#5" y="13.026"/><use xlink:href="#6" y="15.197"/><text x="2.004" y="19.038" class="c">[⠙]</text><text x="6.012" y="19.038" class="c">Getting</text><text x="14.028" y="19.038" class="c">file/dir</text><text x="23.046" y="19.038" class="c">size</text><text x="28.056" y="19.038" class="c">for</text><text x="32.064" y="19.038" class="c">/Users/marvinheilemann/.npm</text><text x="60.12" y="19.038" class="c">(0s)</text></svg><svg x="2000"><use xlink:href="#a"/><use xlink:href="#b" x="63.996" y="17.343"/><use xlink:href="#1" y="2.171"/><use xlink:href="#2" y="4.342"/><use xlink:href="#3" y="8.684"/><use xlink:href="#4" y="10.855"/><use xlink:href="#5" y="13.026"/><use xlink:href="#6" y="15.197"/><text x="2.004" y="19.038" class="c">[⠹]</text><text x="6.012" y="19.038" class="c">Getting</text><text x="14.028" y="19.038" class="c">file/dir</text><text x="23.046" y="19.038" class="c">size</text><text x="28.056" y="19.038" class="c">for</text><text x="32.064" y="19.038" class="c">/Users/marvinheilemann/.npm</text><text x="60.12" y="19.038" class="c">(0s)</text></svg><svg x="2100"><use xlink:href="#a"/><use xlink:href="#b" x="63.996" y="17.343"/><use xlink:href="#1" y="2.171"/><use xlink:href="#2" y="4.342"/><use xlink:href="#3" y="8.684"/><use xlink:href="#4" y="10.855"/><use xlink:href="#5" y="13.026"/><use xlink:href="#6" y="15.197"/><text x="2.004" y="19.038" class="c">[⠸]</text><text x="6.012" y="19.038" class="c">Getting</text><text x="14.028" y="19.038" class="c">file/dir</text><text x="23.046" y="19.038" class="c">size</text><text x="28.056" y="19.038" class="c">for</text><text x="32.064" y="19.038" class="c">/Users/marvinheilemann/.npm</text><text x="60.12" y="19.038" class="c">(1s)</text></svg><svg x="2200"><use xlink:href="#a"/><use xlink:href="#b" x="63.996" y="17.343"/><use xlink:href="#1" y="2.171"/><use xlink:href="#2" y="4.342"/><use xlink:href="#3" y="8.684"/><use xlink:href="#4" y="10.855"/><use xlink:href="#5" y="13.026"/><use xlink:href="#6" y="15.197"/><text x="2.004" y="19.038" class="c">[⠼]</text><text x="6.012" y="19.038" class="c">Getting</text><text x="14.028" y="19.038" class="c">file/dir</text><text x="23.046" y="19.038" class="c">size</text><text x="28.056" y="19.038" class="c">for</text><text x="32.064" y="19.038" class="c">/Users/marvinheilemann/.npm</text><text x="60.12" y="19.038" class="c">(1s)</text></svg><svg x="2300"><use xlink:href="#a"/><use xlink:href="#b" x="-.004" y="17.343"/><use xlink:href="#1" y="2.171"/><use xlink:href="#2" y="4.342"/><use xlink:href="#3" y="8.684"/><use xlink:href="#4" y="10.855"/><use xlink:href="#5" y="13.026"/><use xlink:href="#6" y="15.197"/></svg><svg x="2400"><use xlink:href="#a"/><use xlink:href="#b" x="-.004" y="19.514"/><use xlink:href="#1" y="2.171"/><use xlink:href="#2" y="4.342"/><use xlink:href="#3" y="8.684"/><use xlink:href="#4" y="10.855"/><use xlink:href="#5" y="13.026"/><use xlink:href="#6" y="15.197"/><use xlink:href="#7" y="17.368"/></svg><svg x="2500"><use xlink:href="#a"/><use xlink:href="#b" x="58.996" y="19.514"/><use xlink:href="#1" y="2.171"/><use xlink:href="#2" y="4.342"/><use xlink:href="#3" y="8.684"/><use xlink:href="#4" y="10.855"/><use xlink:href="#5" y="13.026"/><use xlink:href="#6" y="15.197"/><use xlink:href="#7" y="17.368"/><text x="2.004" y="21.209" class="c">[⠋]</text><text x="6.012" y="21.209" class="c">Getting</text><text x="14.028" y="21.209" class="c">file/dir</text><text x="23.046" y="21.209" class="c">size</text><text x="28.056" y="21.209" class="c">for</text><text x="32.064" y="21.209" class="c">/Users/marvinheilemann/.nvm</text></svg><svg x="2600"><use xlink:href="#a"/><use xlink:href="#b" x="63.996" y="19.514"/><use xlink:href="#1" y="2.171"/><use xlink:href="#2" y="4.342"/><use xlink:href="#3" y="8.684"/><use xlink:href="#4" y="10.855"/><use xlink:href="#5" y="13.026"/><use xlink:href="#6" y="15.197"/><use xlink:href="#7" y="17.368"/><text x="2.004" y="21.209" class="c">[⠙]</text><text x="6.012" y="21.209" class="c">Getting</text><text x="14.028" y="21.209" class="c">file/dir</text><text x="23.046" y="21.209" class="c">size</text><text x="28.056" y="21.209" class="c">for</text><text x="32.064" y="21.209" class="c">/Users/marvinheilemann/.nvm</text><text x="60.12" y="21.209" class="c">(0s)</text></svg><svg x="2700"><use xlink:href="#a"/><use xlink:href="#b" x="63.996" y="19.514"/><use xlink:href="#1" y="2.171"/><use xlink:href="#2" y="4.342"/><use xlink:href="#3" y="8.684"/><use xlink:href="#4" y="10.855"/><use xlink:href="#5" y="13.026"/><use xlink:href="#6" y="15.197"/><use xlink:href="#7" y="17.368"/><text x="2.004" y="21.209" class="c">[⠹]</text><text x="6.012" y="21.209" class="c">Getting</text><text x="14.028" y="21.209" class="c">file/dir</text><text x="23.046" y="21.209" class="c">size</text><text x="28.056" y="21.209" class="c">for</text><text x="32.064" y="21.209" class="c">/Users/marvinheilemann/.nvm</text><text x="60.12" y="21.209" class="c">(0s)</text></svg><svg x="2800"><use xlink:href="#a"/><use xlink:href="#b" x="63.996" y="19.514"/><use xlink:href="#1" y="2.171"/><use xlink:href="#2" y="4.342"/><use xlink:href="#3" y="8.684"/><use xlink:href="#4" y="10.855"/><use xlink:href="#5" y="13.026"/><use xlink:href="#6" y="15.197"/><use xlink:href="#7" y="17.368"/><text x="2.004" y="21.209" class="c">[⠸]</text><text x="6.012" y="21.209" class="c">Getting</text><text x="14.028" y="21.209" class="c">file/dir</text><text x="23.046" y="21.209" class="c">size</text><text x="28.056" y="21.209" class="c">for</text><text x="32.064" y="21.209" class="c">/Users/marvinheilemann/.nvm</text><text x="60.12" y="21.209" class="c">(0s)</text></svg><svg x="2900"><use xlink:href="#a"/><use xlink:href="#b" x="63.996" y="19.514"/><use xlink:href="#1" y="2.171"/><use xlink:href="#2" y="4.342"/><use xlink:href="#3" y="8.684"/><use xlink:href="#4" y="10.855"/><use xlink:href="#5" y="13.026"/><use xlink:href="#6" y="15.197"/><use xlink:href="#7" y="17.368"/><text x="2.004" y="21.209" class="c">[⠼]</text><text x="6.012" y="21.209" class="c">Getting</text><text x="14.028" y="21.209" class="c">file/dir</text><text x="23.046" y="21.209" class="c">size</text><text x="28.056" y="21.209" class="c">for</text><text x="32.064" y="21.209" class="c">/Users/marvinheilemann/.nvm</text><text x="60.12" y="21.209" class="c">(0s)</text></svg><svg x="3000"><use xlink:href="#a"/><use xlink:href="#b" x="63.996" y="19.514"/><use xlink:href="#1" y="2.171"/><use xlink:href="#2" y="4.342"/><use xlink:href="#3" y="8.684"/><use xlink:href="#4" y="10.855"/><use xlink:href="#5" y="13.026"/><use xlink:href="#6" y="15.197"/><use xlink:href="#7" y="17.368"/><text x="2.004" y="21.209" class="c">[⠴]</text><text x="6.012" y="21.209" class="c">Getting</text><text x="14.028" y="21.209" class="c">file/dir</text><text x="23.046" y="21.209" class="c">size</text><text x="28.056" y="21.209" class="c">for</text><text x="32.064" y="21.209" class="c">/Users/marvinheilemann/.nvm</text><text x="60.12" y="21.209" class="c">(0s)</text></svg><svg x="3100"><use xlink:href="#a"/><use xlink:href="#b" x="63.996" y="19.514"/><use xlink:href="#1" y="2.171"/><use xlink:href="#2" y="4.342"/><use xlink:href="#3" y="8.684"/><use xlink:href="#4" y="10.855"/><use xlink:href="#5" y="13.026"/><use xlink:href="#6" y="15.197"/><use xlink:href="#7" y="17.368"/><text x="2.004" y="21.209" class="c">[⠦]</text><text x="6.012" y="21.209" class="c">Getting</text><text x="14.028" y="21.209" class="c">file/dir</text><text x="23.046" y="21.209" class="c">size</text><text x="28.056" y="21.209" class="c">for</text><text x="32.064" y="21.209" class="c">/Users/marvinheilemann/.nvm</text><text x="60.12" y="21.209" class="c">(1s)</text></svg><svg x="3200"><use xlink:href="#a"/><use xlink:href="#b" x="63.996" y="19.514"/><use xlink:href="#1" y="2.171"/><use xlink:href="#2" y="4.342"/><use xlink:href="#3" y="8.684"/><use xlink:href="#4" y="10.855"/><use xlink:href="#5" y="13.026"/><use xlink:href="#6" y="15.197"/><use xlink:href="#7" y="17.368"/><text x="2.004" y="21.209" class="c">[⠧]</text><text x="6.012" y="21.209" class="c">Getting</text><text x="14.028" y="21.209" class="c">file/dir</text><text x="23.046" y="21.209" class="c">size</text><text x="28.056" y="21.209" class="c">for</text><text x="32.064" y="21.209" class="c">/Users/marvinheilemann/.nvm</text><text x="60.12" y="21.209" class="c">(1s)</text></svg><svg x="3300"><use xlink:href="#a"/><use xlink:href="#b" x="63.996" y="19.514"/><use xlink:href="#1" y="2.171"/><use xlink:href="#2" y="4.342"/><use xlink:href="#3" y="8.684"/><use xlink:href="#4" y="10.855"/><use xlink:href="#5" y="13.026"/><use xlink:href="#6" y="15.197"/><use xlink:href="#7" y="17.368"/><text x="2.004" y="21.209" class="c">[⠇]</text><text x="6.012" y="21.209" class="c">Getting</text><text x="14.028" y="21.209" class="c">file/dir</text><text x="23.046" y="21.209" class="c">size</text><text x="28.056" y="21.209" class="c">for</text><text x="32.064" y="21.209" class="c">/Users/marvinheilemann/.nvm</text><text x="60.12" y="21.209" class="c">(1s)</text></svg><svg x="3400"><use xlink:href="#a"/><use xlink:href="#b" x="63.996" y="19.514"/><use xlink:href="#1" y="2.171"/><use xlink:href="#2" y="4.342"/><use xlink:href="#3" y="8.684"/><use xlink:href="#4" y="10.855"/><use xlink:href="#5" y="13.026"/><use xlink:href="#6" y="15.197"/><use xlink:href="#7" y="17.368"/><text x="2.004" y="21.209" class="c">[⠋]</text><text x="6.012" y="21.209" class="c">Getting</text><text x="14.028" y="21.209" class="c">file/dir</text><text x="23.046" y="21.209" class="c">size</text><text x="28.056" y="21.209" class="c">for</text><text x="32.064" y="21.209" class="c">/Users/marvinheilemann/.nvm</text><text x="60.12" y="21.209" class="c">(1s)</text></svg><svg x="3500"><use xlink:href="#a"/><use xlink:href="#b" x="63.996" y="19.514"/><use xlink:href="#1" y="2.171"/><use xlink:href="#2" y="4.342"/><use xlink:href="#3" y="8.684"/><use xlink:href="#4" y="10.855"/><use xlink:href="#5" y="13.026"/><use xlink:href="#6" y="15.197"/><use xlink:href="#7" y="17.368"/><text x="2.004" y="21.209" class="c">[⠙]</text><text x="6.012" y="21.209" class="c">Getting</text><text x="14.028" y="21.209" class="c">file/dir</text><text x="23.046" y="21.209" class="c">size</text><text x="28.056" y="21.209" class="c">for</text><text x="32.064" y="21.209" class="c">/Users/marvinheilemann/.nvm</text><text x="60.12" y="21.209" class="c">(1s)</text></svg><svg x="3600"><use xlink:href="#a"/><use xlink:href="#b" x="63.996" y="19.514"/><use xlink:href="#1" y="2.171"/><use xlink:href="#2" y="4.342"/><use xlink:href="#3" y="8.684"/><use xlink:href="#4" y="10.855"/><use xlink:href="#5" y="13.026"/><use xlink:href="#6" y="15.197"/><use xlink:href="#7" y="17.368"/><text x="2.004" y="21.209" class="c">[⠹]</text><text x="6.012" y="21.209" class="c">Getting</text><text x="14.028" y="21.209" class="c">file/dir</text><text x="23.046" y="21.209" class="c">size</text><text x="28.056" y="21.209" class="c">for</text><text x="32.064" y="21.209" class="c">/Users/marvinheilemann/.nvm</text><text x="60.12" y="21.209" class="c">(1s)</text></svg><svg x="3700"><use xlink:href="#a"/><use xlink:href="#b" x="63.996" y="19.514"/><use xlink:href="#1" y="2.171"/><use xlink:href="#2" y="4.342"/><use xlink:href="#3" y="8.684"/><use xlink:href="#4" y="10.855"/><use xlink:href="#5" y="13.026"/><use xlink:href="#6" y="15.197"/><use xlink:href="#7" y="17.368"/><text x="2.004" y="21.209" class="c">[⠸]</text><text x="6.012" y="21.209" class="c">Getting</text><text x="14.028" y="21.209" class="c">file/dir</text><text x="23.046" y="21.209" class="c">size</text><text x="28.056" y="21.209" class="c">for</text><text x="32.064" y="21.209" class="c">/Users/marvinheilemann/.nvm</text><text x="60.12" y="21.209" class="c">(1s)</text></svg><svg x="3800"><use xlink:href="#a"/><use xlink:href="#b" x="63.996" y="19.514"/><use xlink:href="#1" y="2.171"/><use xlink:href="#2" y="4.342"/><use xlink:href="#3" y="8.684"/><use xlink:href="#4" y="10.855"/><use xlink:href="#5" y="13.026"/><use xlink:href="#6" y="15.197"/><use xlink:href="#7" y="17.368"/><text x="2.004" y="21.209" class="c">[⠼]</text><text x="6.012" y="21.209" class="c">Getting</text><text x="14.028" y="21.209" class="c">file/dir</text><text x="23.046" y="21.209" class="c">size</text><text x="28.056" y="21.209" class="c">for</text><text x="32.064" y="21.209" class="c">/Users/marvinheilemann/.nvm</text><text x="60.12" y="21.209" class="c">(1s)</text></svg><svg x="3900"><use xlink:href="#a"/><use xlink:href="#b" x="63.996" y="19.514"/><use xlink:href="#1" y="2.171"/><use xlink:href="#2" y="4.342"/><use xlink:href="#3" y="8.684"/><use xlink:href="#4" y="10.855"/><use xlink:href="#5" y="13.026"/><use xlink:href="#6" y="15.197"/><use xlink:href="#7" y="17.368"/><text x="2.004" y="21.209" class="c">[⠴]</text><text x="6.012" y="21.209" class="c">Getting</text><text x="14.028" y="21.209" class="c">file/dir</text><text x="23.046" y="21.209" class="c">size</text><text x="28.056" y="21.209" class="c">for</text><text x="32.064" y="21.209" class="c">/Users/marvinheilemann/.nvm</text><text x="60.12" y="21.209" class="c">(1s)</text></svg><svg x="4000"><use xlink:href="#a"/><use xlink:href="#b" x="-.004" y="19.514"/><use xlink:href="#1" y="2.171"/><use xlink:href="#2" y="4.342"/><use xlink:href="#3" y="8.684"/><use xlink:href="#4" y="10.855"/><use xlink:href="#5" y="13.026"/><use xlink:href="#6" y="15.197"/><use xlink:href="#7" y="17.368"/></svg><svg x="4100"><use xlink:href="#a"/><use xlink:href="#b" x="-.004" y="21.685"/><use xlink:href="#1" y="2.171"/><use xlink:href="#2" y="4.342"/><use xlink:href="#3" y="8.684"/><use xlink:href="#4" y="10.855"/><use xlink:href="#5" y="13.026"/><use xlink:href="#6" y="15.197"/><use xlink:href="#7" y="17.368"/><use xlink:href="#8" y="19.539"/></svg><svg x="4200"><use xlink:href="#a"/><use xlink:href="#b" x="62.996" y="21.685"/><use xlink:href="#1" y="2.171"/><use xlink:href="#2" y="4.342"/><use xlink:href="#3" y="8.684"/><use xlink:href="#4" y="10.855"/><use xlink:href="#5" y="13.026"/><use xlink:href="#6" y="15.197"/><use xlink:href="#7" y="17.368"/><use xlink:href="#8" y="19.539"/><text x="2.004" y="23.38" class="c">[⠋]</text><text x="6.012" y="23.38" class="c">Getting</text><text x="14.028" y="23.38" class="c">file/dir</text><text x="23.046" y="23.38" class="c">size</text><text x="28.056" y="23.38" class="c">for</text><text x="32.064" y="23.38" class="c">/Users/marvinheilemann/.scripts</text></svg><svg x="4300"><use xlink:href="#a"/><use xlink:href="#b" x="67.996" y="21.685"/><use xlink:href="#1" y="2.171"/><use xlink:href="#2" y="4.342"/><use xlink:href="#3" y="8.684"/><use xlink:href="#4" y="10.855"/><use xlink:href="#5" y="13.026"/><use xlink:href="#6" y="15.197"/><use xlink:href="#7" y="17.368"/><use xlink:href="#8" y="19.539"/><text x="2.004" y="23.38" class="c">[⠙]</text><text x="6.012" y="23.38" class="c">Getting</text><text x="14.028" y="23.38" class="c">file/dir</text><text x="23.046" y="23.38" class="c">size</text><text x="28.056" y="23.38" class="c">for</text><text x="32.064" y="23.38" class="c">/Users/marvinheilemann/.scripts</text><text x="64.128" y="23.38" class="c">(0s)</text></svg><svg x="4400"><use xlink:href="#a"/><use xlink:href="#b" x="-.004" y="21.685"/><use xlink:href="#1" y="2.171"/><use xlink:href="#2" y="4.342"/><use xlink:href="#3" y="8.684"/><use xlink:href="#4" y="10.855"/><use xlink:href="#5" y="13.026"/><use xlink:href="#6" y="15.197"/><use xlink:href="#7" y="17.368"/><use xlink:href="#8" y="19.539"/></svg><svg x="4500"><use xlink:href="#a"/><use xlink:href="#b" x="-.004" y="23.856"/><use xlink:href="#1" y="2.171"/><use xlink:href="#2" y="4.342"/><use xlink:href="#3" y="8.684"/><use xlink:href="#4" y="10.855"/><use xlink:href="#5" y="13.026"/><use xlink:href="#6" y="15.197"/><use xlink:href="#7" y="17.368"/><use xlink:href="#8" y="19.539"/><use xlink:href="#9" y="21.71"/></svg><svg x="4600"><use xlink:href="#a"/><use xlink:href="#b" x="61.996" y="23.856"/><use xlink:href="#1" y="2.171"/><use xlink:href="#2" y="4.342"/><use xlink:href="#3" y="8.684"/><use xlink:href="#4" y="10.855"/><use xlink:href="#5" y="13.026"/><use xlink:href="#6" y="15.197"/><use xlink:href="#7" y="17.368"/><use xlink:href="#8" y="19.539"/><use xlink:href="#9" y="21.71"/><text x="2.004" y="25.551" class="c">[⠋]</text><text x="6.012" y="25.551" class="c">Getting</text><text x="14.028" y="25.551" class="c">file/dir</text><text x="23.046" y="25.551" class="c">size</text><text x="28.056" y="25.551" class="c">for</text><text x="32.064" y="25.551" class="c">/Users/marvinheilemann/.vscode</text></svg><svg x="4700"><use xlink:href="#a"/><use xlink:href="#b" x="66.996" y="23.856"/><use xlink:href="#1" y="2.171"/><use xlink:href="#2" y="4.342"/><use xlink:href="#3" y="8.684"/><use xlink:href="#4" y="10.855"/><use xlink:href="#5" y="13.026"/><use xlink:href="#6" y="15.197"/><use xlink:href="#7" y="17.368"/><use xlink:href="#8" y="19.539"/><use xlink:href="#9" y="21.71"/><text x="2.004" y="25.551" class="c">[⠙]</text><text x="6.012" y="25.551" class="c">Getting</text><text x="14.028" y="25.551" class="c">file/dir</text><text x="23.046" y="25.551" class="c">size</text><text x="28.056" y="25.551" class="c">for</text><text x="32.064" y="25.551" class="c">/Users/marvinheilemann/.vscode</text><text x="63.126" y="25.551" class="c">(0s)</text></svg><svg x="4800"><use xlink:href="#a"/><use xlink:href="#b" x="66.996" y="23.856"/><use xlink:href="#1" y="2.171"/><use xlink:href="#2" y="4.342"/><use xlink:href="#3" y="8.684"/><use xlink:href="#4" y="10.855"/><use xlink:href="#5" y="13.026"/><use xlink:href="#6" y="15.197"/><use xlink:href="#7" y="17.368"/><use xlink:href="#8" y="19.539"/><use xlink:href="#9" y="21.71"/><text x="2.004" y="25.551" class="c">[⠹]</text><text x="6.012" y="25.551" class="c">Getting</text><text x="14.028" y="25.551" class="c">file/dir</text><text x="23.046" y="25.551" class="c">size</text><text x="28.056" y="25.551" class="c">for</text><text x="32.064" y="25.551" class="c">/Users/marvinheilemann/.vscode</text><text x="63.126" y="25.551" class="c">(0s)</text></svg><svg x="4900"><use xlink:href="#a"/><use xlink:href="#b" x="66.996" y="23.856"/><use xlink:href="#1" y="2.171"/><use xlink:href="#2" y="4.342"/><use xlink:href="#3" y="8.684"/><use xlink:href="#4" y="10.855"/><use xlink:href="#5" y="13.026"/><use xlink:href="#6" y="15.197"/><use xlink:href="#7" y="17.368"/><use xlink:href="#8" y="19.539"/><use xlink:href="#9" y="21.71"/><text x="2.004" y="25.551" class="c">[⠸]</text><text x="6.012" y="25.551" class="c">Getting</text><text x="14.028" y="25.551" class="c">file/dir</text><text x="23.046" y="25.551" class="c">size</text><text x="28.056" y="25.551" class="c">for</text><text x="32.064" y="25.551" class="c">/Users/marvinheilemann/.vscode</text><text x="63.126" y="25.551" class="c">(0s)</text></svg><svg x="5000"><use xlink:href="#a"/><use xlink:href="#b" x="66.996" y="23.856"/><use xlink:href="#1" y="2.171"/><use xlink:href="#2" y="4.342"/><use xlink:href="#3" y="8.684"/><use xlink:href="#4" y="10.855"/><use xlink:href="#5" y="13.026"/><use xlink:href="#6" y="15.197"/><use xlink:href="#7" y="17.368"/><use xlink:href="#8" y="19.539"/><use xlink:href="#9" y="21.71"/><text x="2.004" y="25.551" class="c">[⠼]</text><text x="6.012" y="25.551" class="c">Getting</text><text x="14.028" y="25.551" class="c">file/dir</text><text x="23.046" y="25.551" class="c">size</text><text x="28.056" y="25.551" class="c">for</text><text x="32.064" y="25.551" class="c">/Users/marvinheilemann/.vscode</text><text x="63.126" y="25.551" class="c">(0s)</text></svg><svg x="5100"><use xlink:href="#a"/><use xlink:href="#b" x="66.996" y="23.856"/><use xlink:href="#1" y="2.171"/><use xlink:href="#2" y="4.342"/><use xlink:href="#3" y="8.684"/><use xlink:href="#4" y="10.855"/><use xlink:href="#5" y="13.026"/><use xlink:href="#6" y="15.197"/><use xlink:href="#7" y="17.368"/><use xlink:href="#8" y="19.539"/><use xlink:href="#9" y="21.71"/><text x="2.004" y="25.551" class="c">[⠴]</text><text x="6.012" y="25.551" class="c">Getting</text><text x="14.028" y="25.551" class="c">file/dir</text><text x="23.046" y="25.551" class="c">size</text><text x="28.056" y="25.551" class="c">for</text><text x="32.064" y="25.551" class="c">/Users/marvinheilemann/.vscode</text><text x="63.126" y="25.551" class="c">(1s)</text></svg><svg x="5200"><use xlink:href="#a"/><use xlink:href="#b" x="66.996" y="23.856"/><use xlink:href="#1" y="2.171"/><use xlink:href="#2" y="4.342"/><use xlink:href="#3" y="8.684"/><use xlink:href="#4" y="10.855"/><use xlink:href="#5" y="13.026"/><use xlink:href="#6" y="15.197"/><use xlink:href="#7" y="17.368"/><use xlink:href="#8" y="19.539"/><use xlink:href="#9" y="21.71"/><text x="2.004" y="25.551" class="c">[⠦]</text><text x="6.012" y="25.551" class="c">Getting</text><text x="14.028" y="25.551" class="c">file/dir</text><text x="23.046" y="25.551" class="c">size</text><text x="28.056" y="25.551" class="c">for</text><text x="32.064" y="25.551" class="c">/Users/marvinheilemann/.vscode</text><text x="63.126" y="25.551" class="c">(1s)</text></svg><svg x="5300"><use xlink:href="#a"/><use xlink:href="#b" x="66.996" y="23.856"/><use xlink:href="#1" y="2.171"/><use xlink:href="#2" y="4.342"/><use xlink:href="#3" y="8.684"/><use xlink:href="#4" y="10.855"/><use xlink:href="#5" y="13.026"/><use xlink:href="#6" y="15.197"/><use xlink:href="#7" y="17.368"/><use xlink:href="#8" y="19.539"/><use xlink:href="#9" y="21.71"/><text x="2.004" y="25.551" class="c">[⠧]</text><text x="6.012" y="25.551" class="c">Getting</text><text x="14.028" y="25.551" class="c">file/dir</text><text x="23.046" y="25.551" class="c">size</text><text x="28.056" y="25.551" class="c">for</text><text x="32.064" y="25.551" class="c">/Users/marvinheilemann/.vscode</text><text x="63.126" y="25.551" class="c">(1s)</text></svg><svg x="5400"><use xlink:href="#a"/><use xlink:href="#b" x="-.004" y="23.856"/><use xlink:href="#1" y="2.171"/><use xlink:href="#2" y="4.342"/><use xlink:href="#3" y="8.684"/><use xlink:href="#4" y="10.855"/><use xlink:href="#5" y="13.026"/><use xlink:href="#6" y="15.197"/><use xlink:href="#7" y="17.368"/><use xlink:href="#8" y="19.539"/><use xlink:href="#9" y="21.71"/></svg><svg x="5500"><use xlink:href="#a"/><use xlink:href="#b" x="-.004" y="26.027"/><use xlink:href="#1" y="2.171"/><use xlink:href="#2" y="4.342"/><use xlink:href="#3" y="8.684"/><use xlink:href="#4" y="10.855"/><use xlink:href="#5" y="13.026"/><use xlink:href="#6" y="15.197"/><use xlink:href="#7" y="17.368"/><use xlink:href="#8" y="19.539"/><use xlink:href="#9" y="21.71"/><use xlink:href="#10" y="23.881"/></svg><svg x="5600"><use xlink:href="#a"/><use xlink:href="#b" x="62.996" y="26.027"/><use xlink:href="#1" y="2.171"/><use xlink:href="#2" y="4.342"/><use xlink:href="#3" y="8.684"/><use xlink:href="#4" y="10.855"/><use xlink:href="#5" y="13.026"/><use xlink:href="#6" y="15.197"/><use xlink:href="#7" y="17.368"/><use xlink:href="#8" y="19.539"/><use xlink:href="#9" y="21.71"/><use xlink:href="#10" y="23.881"/><text x="2.004" y="27.722" class="c">[⠋]</text><text x="6.012" y="27.722" class="c">Getting</text><text x="14.028" y="27.722" class="c">file/dir</text><text x="23.046" y="27.722" class="c">size</text><text x="28.056" y="27.722" class="c">for</text><text x="32.064" y="27.722" class="c">/Users/marvinheilemann/.zprezto</text></svg><svg x="5700"><use xlink:href="#a"/><use xlink:href="#b" x="67.996" y="26.027"/><use xlink:href="#1" y="2.171"/><use xlink:href="#2" y="4.342"/><use xlink:href="#3" y="8.684"/><use xlink:href="#4" y="10.855"/><use xlink:href="#5" y="13.026"/><use xlink:href="#6" y="15.197"/><use xlink:href="#7" y="17.368"/><use xlink:href="#8" y="19.539"/><use xlink:href="#9" y="21.71"/><use xlink:href="#10" y="23.881"/><text x="2.004" y="27.722" class="c">[⠙]</text><text x="6.012" y="27.722" class="c">Getting</text><text x="14.028" y="27.722" class="c">file/dir</text><text x="23.046" y="27.722" class="c">size</text><text x="28.056" y="27.722" class="c">for</text><text x="32.064" y="27.722" class="c">/Users/marvinheilemann/.zprezto</text><text x="64.128" y="27.722" class="c">(0s)</text></svg><svg x="5800"><use xlink:href="#a"/><use xlink:href="#b" x="-.004" y="26.027"/><use xlink:href="#1" y="2.171"/><use xlink:href="#2" y="4.342"/><use xlink:href="#3" y="8.684"/><use xlink:href="#4" y="10.855"/><use xlink:href="#5" y="13.026"/><use xlink:href="#6" y="15.197"/><use xlink:href="#7" y="17.368"/><use xlink:href="#8" y="19.539"/><use xlink:href="#9" y="21.71"/><use xlink:href="#10" y="23.881"/></svg><svg x="5900"><use xlink:href="#a"/><use xlink:href="#b" x="-.004" y="28.198"/><use xlink:href="#1" y="2.171"/><use xlink:href="#2" y="4.342"/><use xlink:href="#3" y="8.684"/><use xlink:href="#4" y="10.855"/><use xlink:href="#5" y="13.026"/><use xlink:href="#6" y="15.197"/><use xlink:href="#7" y="17.368"/><use xlink:href="#8" y="19.539"/><use xlink:href="#9" y="21.71"/><use xlink:href="#10" y="23.881"/><use xlink:href="#11" y="26.052"/></svg><svg x="6000"><use xlink:href="#a"/><use xlink:href="#b" x="63.996" y="28.198"/><use xlink:href="#1" y="2.171"/><use xlink:href="#2" y="4.342"/><use xlink:href="#3" y="8.684"/><use xlink:href="#4" y="10.855"/><use xlink:href="#5" y="13.026"/><use xlink:href="#6" y="15.197"/><use xlink:href="#7" y="17.368"/><use xlink:href="#8" y="19.539"/><use xlink:href="#9" y="21.71"/><use xlink:href="#10" y="23.881"/><use xlink:href="#11" y="26.052"/><text x="2.004" y="29.893" class="c">[⠋]</text><text x="6.012" y="29.893" class="c">Getting</text><text x="14.028" y="29.893" class="c">file/dir</text><text x="23.046" y="29.893" class="c">size</text><text x="28.056" y="29.893" class="c">for</text><text x="32.064" y="29.893" class="c">/Users/marvinheilemann/Nextcloud</text></svg><svg x="6100"><use xlink:href="#a"/><use xlink:href="#b" x="-.004" y="28.198"/><use xlink:href="#1" y="2.171"/><use xlink:href="#2" y="4.342"/><use xlink:href="#3" y="8.684"/><use xlink:href="#4" y="10.855"/><use xlink:href="#5" y="13.026"/><use xlink:href="#6" y="15.197"/><use xlink:href="#7" y="17.368"/><use xlink:href="#8" y="19.539"/><use xlink:href="#9" y="21.71"/><use xlink:href="#10" y="23.881"/><use xlink:href="#11" y="26.052"/></svg><svg x="6200"><use xlink:href="#a"/><use xlink:href="#b" x="-.004" y="30.369"/><use xlink:href="#1" y="2.171"/><use xlink:href="#2" y="4.342"/><use xlink:href="#3" y="8.684"/><use xlink:href="#4" y="10.855"/><use xlink:href="#5" y="13.026"/><use xlink:href="#6" y="15.197"/><use xlink:href="#7" y="17.368"/><use xlink:href="#8" y="19.539"/><use xlink:href="#9" y="21.71"/><use xlink:href="#10" y="23.881"/><use xlink:href="#11" y="26.052"/><use xlink:href="#12" y="28.223"/></svg><svg x="6300"><use xlink:href="#a"/><use xlink:href="#b" x="63.996" y="30.369"/><use xlink:href="#1" y="2.171"/><use xlink:href="#2" y="4.342"/><use xlink:href="#3" y="8.684"/><use xlink:href="#4" y="10.855"/><use xlink:href="#5" y="13.026"/><use xlink:href="#6" y="15.197"/><use xlink:href="#7" y="17.368"/><use xlink:href="#8" y="19.539"/><use xlink:href="#9" y="21.71"/><use xlink:href="#10" y="23.881"/><use xlink:href="#11" y="26.052"/><use xlink:href="#12" y="28.223"/><use xlink:href="#13" y="30.394"/></svg><svg x="6400"><use xlink:href="#a"/><use xlink:href="#b" x="68.996" y="30.369"/><use xlink:href="#1" y="2.171"/><use xlink:href="#2" y="4.342"/><use xlink:href="#3" y="8.684"/><use xlink:href="#4" y="10.855"/><use xlink:href="#5" y="13.026"/><use xlink:href="#6" y="15.197"/><use xlink:href="#7" y="17.368"/><use xlink:href="#8" y="19.539"/><use xlink:href="#9" y="21.71"/><use xlink:href="#10" y="23.881"/><use xlink:href="#11" y="26.052"/><use xlink:href="#12" y="28.223"/><use xlink:href="#14" y="30.394"/></svg><svg x="6500"><use xlink:href="#a"/><use xlink:href="#b" x="-.004" y="30.369"/><use xlink:href="#1" y="2.171"/><use xlink:href="#2" y="4.342"/><use xlink:href="#3" y="8.684"/><use xlink:href="#4" y="10.855"/><use xlink:href="#5" y="13.026"/><use xlink:href="#6" y="15.197"/><use xlink:href="#7" y="17.368"/><use xlink:href="#8" y="19.539"/><use xlink:href="#9" y="21.71"/><use xlink:href="#10" y="23.881"/><use xlink:href="#11" y="26.052"/><use xlink:href="#12" y="28.223"/></svg><svg x="6600"><use xlink:href="#a"/><use xlink:href="#b" x="-.004" y="32.54"/><use xlink:href="#1" y="2.171"/><use xlink:href="#2" y="4.342"/><use xlink:href="#3" y="8.684"/><use xlink:href="#4" y="10.855"/><use xlink:href="#5" y="13.026"/><use xlink:href="#6" y="15.197"/><use xlink:href="#7" y="17.368"/><use xlink:href="#8" y="19.539"/><use xlink:href="#9" y="21.71"/><use xlink:href="#10" y="23.881"/><use xlink:href="#11" y="26.052"/><use xlink:href="#12" y="28.223"/><use xlink:href="#15" y="30.394"/></svg><svg x="6700"><use xlink:href="#a"/><use xlink:href="#b" x="63.996" y="32.54"/><use xlink:href="#1" y="2.171"/><use xlink:href="#2" y="4.342"/><use xlink:href="#3" y="8.684"/><use xlink:href="#4" y="10.855"/><use xlink:href="#5" y="13.026"/><use xlink:href="#6" y="15.197"/><use xlink:href="#7" y="17.368"/><use xlink:href="#8" y="19.539"/><use xlink:href="#9" y="21.71"/><use xlink:href="#10" y="23.881"/><use xlink:href="#11" y="26.052"/><use xlink:href="#12" y="28.223"/><use xlink:href="#15" y="30.394"/><use xlink:href="#13" y="32.565"/></svg><svg x="6800"><use xlink:href="#a"/><use xlink:href="#b" x="68.996" y="32.54"/><use xlink:href="#1" y="2.171"/><use xlink:href="#2" y="4.342"/><use xlink:href="#3" y="8.684"/><use xlink:href="#4" y="10.855"/><use xlink:href="#5" y="13.026"/><use xlink:href="#6" y="15.197"/><use xlink:href="#7" y="17.368"/><use xlink:href="#8" y="19.539"/><use xlink:href="#9" y="21.71"/><use xlink:href="#10" y="23.881"/><use xlink:href="#11" y="26.052"/><use xlink:href="#12" y="28.223"/><use xlink:href="#15" y="30.394"/><use xlink:href="#14" y="32.565"/></svg><svg x="6900"><use xlink:href="#a"/><use xlink:href="#b" x="-.004" y="32.54"/><use xlink:href="#1" y="2.171"/><use xlink:href="#2" y="4.342"/><use xlink:href="#3" y="8.684"/><use xlink:href="#4" y="10.855"/><use xlink:href="#5" y="13.026"/><use xlink:href="#6" y="15.197"/><use xlink:href="#7" y="17.368"/><use xlink:href="#8" y="19.539"/><use xlink:href="#9" y="21.71"/><use xlink:href="#10" y="23.881"/><use xlink:href="#11" y="26.052"/><use xlink:href="#12" y="28.223"/><use xlink:href="#15" y="30.394"/></svg><svg x="7000"><use xlink:href="#a"/><use xlink:href="#b" x="-.004" y="34.711"/><use xlink:href="#1" y="2.171"/><use xlink:href="#2" y="4.342"/><use xlink:href="#3" y="8.684"/><use xlink:href="#4" y="10.855"/><use xlink:href="#5" y="13.026"/><use xlink:href="#6" y="15.197"/><use xlink:href="#7" y="17.368"/><use xlink:href="#8" y="19.539"/><use xlink:href="#9" y="21.71"/><use xlink:href="#10" y="23.881"/><use xlink:href="#11" y="26.052"/><use xlink:href="#12" y="28.223"/><use xlink:href="#15" y="30.394"/><use xlink:href="#15" y="32.565"/></svg><svg x="7100"><use xlink:href="#a"/><use xlink:href="#b" x="-.004" y="41.224"/><use xlink:href="#1" y="2.171"/><use xlink:href="#2" y="4.342"/><use xlink:href="#3" y="8.684"/><use xlink:href="#4" y="10.855"/><use xlink:href="#5" y="13.026"/><use xlink:href="#6" y="15.197"/><use xlink:href="#7" y="17.368"/><use xlink:href="#8" y="19.539"/><use xlink:href="#9" y="21.71"/><use xlink:href="#10" y="23.881"/><use xlink:href="#11" y="26.052"/><use xlink:href="#12" y="28.223"/><use xlink:href="#15" y="30.394"/><use xlink:href="#15" y="32.565"/><text x="2.004" y="38.577" class="c">Done</text><text x="7.014" y="38.577" class="c">after</text><text x="13.026" y="38.577" class="c">18s</text></svg></svg></g></g></svg></svg>