<svg xmlns="http://www.w3.org/2000/svg" xmlns:xlink="http://www.w3.org/1999/xlink" width="1000" height="582.75"><rect width="1000" height="582.75" rx="0" ry="0" class="a"/><svg height="542.75" viewBox="0 0 100 54.275" width="1000" xmlns="http://www.w3.org/2000/svg" xmlns:xlink="http://www.w3.org/1999/xlink" y="20"><style>@keyframes h{0%{transform:translateX(0)}2.2%{transform:translateX(-100px)}2.4%{transform:translateX(-200px)}2.7%{transform:translateX(-400px)}2.9%{transform:translateX(-600px)}4.3%{transform:translateX(-700px)}5%{transform:translateX(-800px)}11.5%{transform:translateX(-900px)}18.1%{transform:translateX(-1000px)}24.7%{transform:translateX(-1100px)}31.5%{transform:translateX(-1200px)}38%{transform:translateX(-1300px)}44.5%{transform:translateX(-1400px)}50.9%{transform:translateX(-1500px)}51.3%{transform:translateX(-1600px)}52.6%{transform:translateX(-1700px)}53.2%{transform:translateX(-1800px)}59.9%{transform:translateX(-1900px)}66.5%{transform:translateX(-2000px)}73.2%{transform:translateX(-2100px)}79.6%{transform:translateX(-2200px)}86.6%{transform:translateX(-2300px)}93.3%{transform:translateX(-2400px)}99.6%{transform:translateX(-2500px)}to{transform:translateX(-2700px)}}.a{fill:#282d35}.c,.d{fill:#b9c0cb;white-space:pre}.d{font-weight:700}</style><g font-family="Monaco,Consolas,Menlo,'Bitstream Vera Sans Mono','Powerline Symbols',monospace" font-size="1.67"><defs><symbol id="1"><text x="2.004" y="1.67" class="c">⚘</text><text x="5.01" y="1.67" class="d">Update</text><text x="12.024" y="1.67" class="d">prezto</text></symbol><symbol id="2"><text x="2.004" y="1.67" class="c">└──────────────────────────────────────────────────────────────────────○</text></symbol><symbol id="3"><text x="2.004" y="1.67" class="c">[</text><text x="3.006" y="1.67" style="white-space:pre" fill="#a8cc8c">✓</text><text x="4.008" y="1.67" class="c">]</text><text x="6.012" y="1.67" class="c">Finished</text></symbol><symbol id="4"><text x="2.004" y="1.67" class="c">Done</text><text x="7.014" y="1.67" class="c">after</text><text x="13.026" y="1.67" class="c">1s</text></symbol><symbol id="a"><path fill="transparent" d="M0 0h100v26H0z"/></symbol><symbol id="b"><path fill="#6f7683" d="M0 0h1.102v2.171H0z"/></symbol></defs><path class="a" d="M0 0h100v54.275H0z"/><g style="animation-duration:1.660586s;animation-iteration-count:infinite;animation-name:h;animation-timing-function:steps(1,end)"><svg width="2800"><svg><use xlink:href="#a"/><use xlink:href="#b" x="-.004"/></svg><svg x="100"><use xlink:href="#a"/><use xlink:href="#b" x="-.004"/></svg><svg x="200"><use xlink:href="#a"/><use xlink:href="#b" x="1.996"/></svg><svg x="300"><use xlink:href="#a"/><use xlink:href="#b" x="-.004" y="2.146"/></svg><svg x="400"><use xlink:href="#a"/><use xlink:href="#b" x="-.004" y="4.317"/><use xlink:href="#1" y="2.171"/></svg><svg x="500"><use xlink:href="#a"/><use xlink:href="#b" x="-.004" y="6.488"/><use xlink:href="#1" y="2.171"/><use xlink:href="#2" y="4.342"/></svg><svg x="600"><use xlink:href="#a"/><use xlink:href="#b" x="-.004" y="8.659"/><use xlink:href="#1" y="2.171"/><use xlink:href="#2" y="4.342"/></svg><svg x="700"><use xlink:href="#a"/><use xlink:href="#b" x="20.996" y="8.659"/><use xlink:href="#1" y="2.171"/><use xlink:href="#2" y="4.342"/><text x="2.004" y="10.354" class="c">[⠋]</text><text x="6.012" y="10.354" class="c">Updating</text><text x="15.03" y="10.354" class="c">prezto</text></svg><svg x="800"><use xlink:href="#a"/><use xlink:href="#b" x="25.996" y="8.659"/><use xlink:href="#1" y="2.171"/><use xlink:href="#2" y="4.342"/><text x="2.004" y="10.354" class="c">[⠙]</text><text x="6.012" y="10.354" class="c">Updating</text><text x="15.03" y="10.354" class="c">prezto</text><text x="22.044" y="10.354" class="c">(0s)</text></svg><svg x="900"><use xlink:href="#a"/><use xlink:href="#b" x="25.996" y="8.659"/><use xlink:href="#1" y="2.171"/><use xlink:href="#2" y="4.342"/><text x="2.004" y="10.354" class="c">[⠹]</text><text x="6.012" y="10.354" class="c">Updating</text><text x="15.03" y="10.354" class="c">prezto</text><text x="22.044" y="10.354" class="c">(0s)</text></svg><svg x="1000"><use xlink:href="#a"/><use xlink:href="#b" x="25.996" y="8.659"/><use xlink:href="#1" y="2.171"/><use xlink:href="#2" y="4.342"/><text x="2.004" y="10.354" class="c">[⠸]</text><text x="6.012" y="10.354" class="c">Updating</text><text x="15.03" y="10.354" class="c">prezto</text><text x="22.044" y="10.354" class="c">(0s)</text></svg><svg x="1100"><use xlink:href="#a"/><use xlink:href="#b" x="25.996" y="8.659"/><use xlink:href="#1" y="2.171"/><use xlink:href="#2" y="4.342"/><text x="2.004" y="10.354" class="c">[⠼]</text><text x="6.012" y="10.354" class="c">Updating</text><text x="15.03" y="10.354" class="c">prezto</text><text x="22.044" y="10.354" class="c">(0s)</text></svg><svg x="1200"><use xlink:href="#a"/><use xlink:href="#b" x="25.996" y="8.659"/><use xlink:href="#1" y="2.171"/><use xlink:href="#2" y="4.342"/><text x="2.004" y="10.354" class="c">[⠴]</text><text x="6.012" y="10.354" class="c">Updating</text><text x="15.03" y="10.354" class="c">prezto</text><text x="22.044" y="10.354" class="c">(0s)</text></svg><svg x="1300"><use xlink:href="#a"/><use xlink:href="#b" x="25.996" y="8.659"/><use xlink:href="#1" y="2.171"/><use xlink:href="#2" y="4.342"/><text x="2.004" y="10.354" class="c">[⠦]</text><text x="6.012" y="10.354" class="c">Updating</text><text x="15.03" y="10.354" class="c">prezto</text><text x="22.044" y="10.354" class="c">(0s)</text></svg><svg x="1400"><use xlink:href="#a"/><use xlink:href="#b" x="25.996" y="8.659"/><use xlink:href="#1" y="2.171"/><use xlink:href="#2" y="4.342"/><text x="2.004" y="10.354" class="c">[⠧]</text><text x="6.012" y="10.354" class="c">Updating</text><text x="15.03" y="10.354" class="c">prezto</text><text x="22.044" y="10.354" class="c">(0s)</text></svg><svg x="1500"><use xlink:href="#a"/><use xlink:href="#b" x="-.004" y="8.659"/><use xlink:href="#1" y="2.171"/><use xlink:href="#2" y="4.342"/></svg><svg x="1600"><use xlink:href="#a"/><use xlink:href="#b" x="-.004" y="10.83"/><use xlink:href="#1" y="2.171"/><use xlink:href="#2" y="4.342"/><use xlink:href="#3" y="8.684"/></svg><svg x="1700"><use xlink:href="#a"/><use xlink:href="#b" x="24.996" y="10.83"/><use xlink:href="#1" y="2.171"/><use xlink:href="#2" y="4.342"/><use xlink:href="#3" y="8.684"/><text x="2.004" y="12.525" class="c">[⠋]</text><text x="6.012" y="12.525" class="c">Updating</text><text x="15.03" y="12.525" class="c">submodules</text></svg><svg x="1800"><use xlink:href="#a"/><use xlink:href="#b" x="29.996" y="10.83"/><use xlink:href="#1" y="2.171"/><use xlink:href="#2" y="4.342"/><use xlink:href="#3" y="8.684"/><text x="2.004" y="12.525" class="c">[⠙]</text><text x="6.012" y="12.525" class="c">Updating</text><text x="15.03" y="12.525" class="c">submodules</text><text x="26.052" y="12.525" class="c">(0s)</text></svg><svg x="1900"><use xlink:href="#a"/><use xlink:href="#b" x="29.996" y="10.83"/><use xlink:href="#1" y="2.171"/><use xlink:href="#2" y="4.342"/><use xlink:href="#3" y="8.684"/><text x="2.004" y="12.525" class="c">[⠹]</text><text x="6.012" y="12.525" class="c">Updating</text><text x="15.03" y="12.525" class="c">submodules</text><text x="26.052" y="12.525" class="c">(0s)</text></svg><svg x="2000"><use xlink:href="#a"/><use xlink:href="#b" x="29.996" y="10.83"/><use xlink:href="#1" y="2.171"/><use xlink:href="#2" y="4.342"/><use xlink:href="#3" y="8.684"/><text x="2.004" y="12.525" class="c">[⠸]</text><text x="6.012" y="12.525" class="c">Updating</text><text x="15.03" y="12.525" class="c">submodules</text><text x="26.052" y="12.525" class="c">(0s)</text></svg><svg x="2100"><use xlink:href="#a"/><use xlink:href="#b" x="29.996" y="10.83"/><use xlink:href="#1" y="2.171"/><use xlink:href="#2" y="4.342"/><use xlink:href="#3" y="8.684"/><text x="2.004" y="12.525" class="c">[⠼]</text><text x="6.012" y="12.525" class="c">Updating</text><text x="15.03" y="12.525" class="c">submodules</text><text x="26.052" y="12.525" class="c">(0s)</text></svg><svg x="2200"><use xlink:href="#a"/><use xlink:href="#b" x="29.996" y="10.83"/><use xlink:href="#1" y="2.171"/><use xlink:href="#2" y="4.342"/><use xlink:href="#3" y="8.684"/><text x="2.004" y="12.525" class="c">[⠴]</text><text x="6.012" y="12.525" class="c">Updating</text><text x="15.03" y="12.525" class="c">submodules</text><text x="26.052" y="12.525" class="c">(0s)</text></svg><svg x="2300"><use xlink:href="#a"/><use xlink:href="#b" x="29.996" y="10.83"/><use xlink:href="#1" y="2.171"/><use xlink:href="#2" y="4.342"/><use xlink:href="#3" y="8.684"/><text x="2.004" y="12.525" class="c">[⠦]</text><text x="6.012" y="12.525" class="c">Updating</text><text x="15.03" y="12.525" class="c">submodules</text><text x="26.052" y="12.525" class="c">(0s)</text></svg><svg x="2400"><use xlink:href="#a"/><use xlink:href="#b" x="29.996" y="10.83"/><use xlink:href="#1" y="2.171"/><use xlink:href="#2" y="4.342"/><use xlink:href="#3" y="8.684"/><text x="2.004" y="12.525" class="c">[⠧]</text><text x="6.012" y="12.525" class="c">Updating</text><text x="15.03" y="12.525" class="c">submodules</text><text x="26.052" y="12.525" class="c">(0s)</text></svg><svg x="2500"><use xlink:href="#a"/><use xlink:href="#b" x="-.004" y="10.83"/><use xlink:href="#1" y="2.171"/><use xlink:href="#2" y="4.342"/><use xlink:href="#3" y="8.684"/></svg><svg x="2600"><use xlink:href="#a"/><use xlink:href="#b" x="-.004" y="17.343"/><use xlink:href="#1" y="2.171"/><use xlink:href="#2" y="4.342"/><use xlink:href="#3" y="8.684"/><use xlink:href="#3" y="10.855"/><use xlink:href="#4" y="15.197"/></svg><svg x="2700"><use xlink:href="#a"/><use xlink:href="#b" x="-.004" y="19.514"/><use xlink:href="#1" y="2.171"/><use xlink:href="#2" y="4.342"/><use xlink:href="#3" y="8.684"/><use xlink:href="#3" y="10.855"/><use xlink:href="#4" y="15.197"/></svg></svg></g></g></svg></svg>